<svg width="25" height="24" viewBox="0 0 25 24" fill="none" xmlns="http://www.w3.org/2000/svg">
<path fill-rule="evenodd" clip-rule="evenodd" d="M24.4997 12.2724C24.4997 11.4215 24.4218 10.6033 24.2771 9.81787H12.7446V14.4597H19.3346C19.0508 15.9597 18.188 17.2306 16.8912 18.0815V21.0924H20.8485C23.1639 19.0033 24.4997 15.927 24.4997 12.2724Z" fill="#4285F4"/>
<path fill-rule="evenodd" clip-rule="evenodd" d="M12.7457 23.9998C16.0518 23.9998 18.8236 22.9252 20.8496 21.0925L16.8923 18.0816C15.7958 18.8016 14.3932 19.2271 12.7457 19.2271C9.55647 19.2271 6.85703 17.1161 5.89413 14.2798H1.80322V17.3889C3.81806 21.3107 7.95907 23.9998 12.7457 23.9998Z" fill="#34A853"/>
<path fill-rule="evenodd" clip-rule="evenodd" d="M5.89381 14.2799C5.64891 13.5599 5.50976 12.7908 5.50976 11.9999C5.50976 11.209 5.64891 10.4399 5.89381 9.71993V6.61084H1.8029C0.973587 8.23084 0.500488 10.0636 0.500488 11.9999C0.500488 13.9363 0.973587 15.769 1.8029 17.389L5.89381 14.2799Z" fill="#FBBC05"/>
<path fill-rule="evenodd" clip-rule="evenodd" d="M12.7457 4.77273C14.5435 4.77273 16.1576 5.37818 17.4266 6.56727L20.9387 3.12545C18.8181 1.18909 16.0463 0 12.7457 0C7.95907 0 3.81806 2.68909 1.80322 6.61091L5.89413 9.72C6.85703 6.88364 9.55647 4.77273 12.7457 4.77273Z" fill="#EA4335"/>
</svg>
