<svg width="219" height="219" viewBox="0 0 219 219" fill="none" xmlns="http://www.w3.org/2000/svg">
<path d="M164.39 219L5.4751 10.9502H60.0847L219 219H164.39Z" fill="#323130"/>
<path d="M26.5537 191.078C26.5537 180.949 31.8614 160.834 43.2525 149.194C43.6152 148.501 44.3309 147.929 45.0419 147.763C45.7532 147.597 46.3066 147.872 46.4264 148.452C47.3946 152.693 50.1942 157.522 54.7759 158.134C55.3427 158.251 56.0862 157.963 56.6585 157.406C57.2309 156.848 57.5185 156.132 57.3867 155.592C55.9774 149.81 54.7759 145.087 57.3867 133.697C60.6404 129.142 85.1205 112.747 101.907 95.355C118.694 77.9628 133.746 56.249 146.001 47.2029C146.644 46.622 147.454 46.3821 147.999 46.6117C148.544 46.8413 148.696 47.4867 148.373 48.2024C144.925 55.6811 142.222 63.1702 140.309 70.5448C139.86 72.3164 140.966 73.4944 142.779 73.1762C144.592 72.8577 146.426 71.1631 146.875 69.3915C149.957 57.7807 154.986 45.9284 161.755 34.3205C161.916 34.0467 162.049 33.7682 162.151 33.491C167.97 28.7566 173.474 24.4519 177.951 21.0203C188.325 13.2974 199.125 6.42696 210.154 0.53418C170.82 88.9688 98.0529 144.266 36.8049 190.53L26.5537 191.078Z" fill="#0096FF"/>
<path d="M210.346 0.269035C210.227 0.33623 210.106 0.398387 209.985 0.455253C196.042 32.5077 175.245 64.0238 149.253 92.4918C122.95 121.233 93.7793 147.674 62.6391 171.002C53.9415 177.745 46.158 185.088 37.086 191.077L32.8501 200.933C81.0301 205.312 105.11 178.087 112.238 171.002C112.737 170.514 113.013 169.895 112.957 169.391C112.901 168.888 112.521 168.582 111.969 168.595C107.771 168.334 100.865 167.223 98.7079 164.369C98.3906 163.997 98.4284 163.368 98.8052 162.756C99.1823 162.144 99.8299 161.659 100.466 161.512C111.787 162.59 112.752 162.59 120.45 161.512C126.574 156.222 147.394 139.275 153.161 133.605L158.293 127.903L165.991 119.92C172.718 112.038 180.083 103.615 185.619 95.2128C186.064 94.5447 186.102 93.8421 185.714 93.4658C185.327 93.0895 184.6 93.1232 183.906 93.5496C180.998 95.2883 178.025 96.7685 175.039 97.9627C173.8 98.4928 172.634 98.3938 172.001 97.7049C171.368 97.0161 171.368 95.8474 172.002 94.6592C172.636 93.4713 173.802 92.4522 175.041 92.0067C181.801 89.0445 188.429 84.9723 194.549 80.0162C194.885 79.7742 195.166 79.4542 195.343 79.1106C202.025 67.0384 207.042 54.7845 210.224 42.7661C214.951 21.0665 213.608 3.99208 212.244 0.579804C212.007 -0.0521438 211.192 -0.185645 210.346 0.269035Z" fill="#4EB6FF"/>
<path d="M1.32864 213.986C0.251798 215.18 -0.229719 216.647 0.104864 217.712C0.439448 218.778 1.52561 219.237 2.86529 218.88C18.8425 210.787 26.9716 205.169 43.2669 194.088C69.5828 176.195 127.434 127.176 163.189 80.1883C164.299 78.4968 164.197 76.732 162.953 76.1154C161.71 75.4988 159.735 76.2337 158.396 77.8112C116.66 119.57 77.2623 156.858 18.262 196.552C15.299 198.546 8.99053 202.575 7.3048 205.312L1.32864 213.986Z" fill="#323130"/>
</svg>
