<svg width="626" height="839" viewBox="0 0 626 839" fill="none" xmlns="http://www.w3.org/2000/svg">
<path d="M194.12 244.492C194.12 244.492 251.35 150.352 236.13 117.042C219.99 81.6821 112.29 95.5321 81.56 156.732C39.1 241.302 43.26 282.142 51.91 305.842C58.93 325.092 130.58 364.632 194.12 244.492Z" fill="#EEF9FF"/>
<path d="M126.62 718.872C193.46 795.502 359.97 828.632 439.13 757.222C518.29 685.802 564.2 597.492 555.3 425.902C544.73 222.042 510.29 35.4419 393.79 35.4419C303.22 35.4419 266.44 131.382 236.81 222.032C190.02 365.192 119 355.662 60.2001 403.852C-12.8199 463.702 75.2901 660.032 126.62 718.872Z" fill="#EEF9FF"/>
<path d="M284.56 664.122H265.45V662.852C265.45 660.352 268.25 658.372 271.58 658.502L279.07 658.802C282.15 658.922 284.57 660.832 284.57 663.152V664.122H284.56Z" fill="#F0F0F0"/>
<path d="M239.29 629.462C239.23 628.142 238.14 627.102 236.81 627.102H219.86C218.54 627.102 217.45 628.142 217.39 629.462L221.41 664.772H246.7L239.28 629.462H239.29Z" fill="#E7E7E7"/>
<path d="M285.31 575.172H279L271.9 641.862H278.21C279.26 641.862 280.19 641.012 280.31 639.972L287 577.062C287.11 576.012 286.35 575.172 285.31 575.172Z" fill="#E7E7E7"/>
<path d="M275.55 641.862H180.92C179.87 641.862 179.12 641.012 179.23 639.972L185.92 577.062C186.03 576.012 186.97 575.172 188.02 575.172H282.65C283.7 575.172 284.45 576.022 284.34 577.062L277.65 639.972C277.54 641.022 276.6 641.862 275.55 641.862Z" fill="#ECECEC"/>
<path d="M273.78 635.702H184.55C183.64 635.702 182.98 634.962 183.07 634.052L188.91 579.172C189.01 578.262 189.83 577.522 190.74 577.522H279.97C280.88 577.522 281.54 578.262 281.45 579.172L275.61 634.052C275.51 634.962 274.69 635.702 273.78 635.702Z" fill="#FAFAFA"/>
<path d="M248.13 662.032H216.08C215.583 662.032 215.18 662.435 215.18 662.932V663.872C215.18 664.369 215.583 664.772 216.08 664.772H248.13C248.627 664.772 249.03 664.369 249.03 663.872V662.932C249.03 662.435 248.627 662.032 248.13 662.032Z" fill="#E7E7E7"/>
<path d="M324.28 663.982H247.24V675.602H324.28V663.982Z" fill="#E7E7E7"/>
<path d="M109.61 793.782H107.69C107.45 793.782 107.25 793.592 107.25 793.342L104.21 675.602H113.1L110.06 793.342C110.06 793.582 109.86 793.782 109.62 793.782H109.61Z" fill="#E7E7E7"/>
<path d="M41.0401 793.782H36.6001L49.1401 675.602H58.0301L41.0401 793.782Z" fill="#F0F0F0"/>
<path d="M327.28 793.782L310.25 675.602H319.14L331.68 793.782H327.28Z" fill="#E7E7E7"/>
<path d="M269.21 663.982H44V675.602H269.21V663.982Z" fill="#F5F5F5"/>
<path d="M262.19 793.782H257.08V793.772L255.19 675.602H264.07L262.19 793.782Z" fill="#F0F0F0"/>
<path d="M190.24 661.892H187.88C187.63 661.892 187.43 661.692 187.43 661.442V658.942C187.43 658.692 187.63 658.492 187.88 658.492H189.57C189.77 658.492 189.95 658.632 190.01 658.822L190.68 661.322C190.76 661.612 190.54 661.892 190.24 661.892Z" fill="#F5F5F5"/>
<path d="M193.5 661.892H191.14C190.89 661.892 190.69 661.692 190.69 661.442V658.942C190.69 658.692 190.89 658.492 191.14 658.492H192.83C193.03 658.492 193.21 658.632 193.27 658.822L193.94 661.322C194.02 661.612 193.8 661.892 193.5 661.892Z" fill="#F5F5F5"/>
<path d="M196.76 661.892H194.4C194.15 661.892 193.95 661.692 193.95 661.442V658.942C193.95 658.692 194.15 658.492 194.4 658.492H196.09C196.29 658.492 196.47 658.632 196.53 658.822L197.2 661.322C197.28 661.612 197.06 661.892 196.76 661.892Z" fill="#F5F5F5"/>
<path d="M200.02 661.892H197.66C197.41 661.892 197.21 661.692 197.21 661.442V658.942C197.21 658.692 197.41 658.492 197.66 658.492H199.35C199.55 658.492 199.73 658.632 199.79 658.822L200.46 661.322C200.54 661.612 200.32 661.892 200.02 661.892Z" fill="#F5F5F5"/>
<path d="M203.29 661.892H200.93C200.68 661.892 200.48 661.692 200.48 661.442V658.942C200.48 658.692 200.68 658.492 200.93 658.492H202.62C202.82 658.492 203 658.632 203.06 658.822L203.73 661.322C203.81 661.612 203.59 661.892 203.29 661.892Z" fill="#F5F5F5"/>
<path d="M206.55 661.892H204.19C203.94 661.892 203.74 661.692 203.74 661.442V658.942C203.74 658.692 203.94 658.492 204.19 658.492H205.88C206.08 658.492 206.26 658.632 206.32 658.822L206.99 661.322C207.07 661.612 206.85 661.892 206.55 661.892Z" fill="#F5F5F5"/>
<path d="M209.81 661.892H207.45C207.2 661.892 207 661.692 207 661.442V658.942C207 658.692 207.2 658.492 207.45 658.492H209.14C209.34 658.492 209.52 658.632 209.58 658.822L210.25 661.322C210.33 661.612 210.11 661.892 209.81 661.892Z" fill="#F5F5F5"/>
<path d="M213.07 661.892H210.71C210.46 661.892 210.26 661.692 210.26 661.442V658.942C210.26 658.692 210.46 658.492 210.71 658.492H212.4C212.6 658.492 212.78 658.632 212.84 658.822L213.51 661.322C213.59 661.612 213.37 661.892 213.07 661.892Z" fill="#F5F5F5"/>
<path d="M216.33 661.892H213.97C213.72 661.892 213.52 661.692 213.52 661.442V658.942C213.52 658.692 213.72 658.492 213.97 658.492H215.66C215.86 658.492 216.04 658.632 216.1 658.822L216.77 661.322C216.85 661.612 216.63 661.892 216.33 661.892Z" fill="#F5F5F5"/>
<path d="M219.59 661.892H217.23C216.98 661.892 216.78 661.692 216.78 661.442V658.942C216.78 658.692 216.98 658.492 217.23 658.492H218.92C219.12 658.492 219.3 658.632 219.36 658.822L220.03 661.322C220.11 661.612 219.89 661.892 219.59 661.892Z" fill="#F5F5F5"/>
<path d="M222.85 661.892H220.49C220.24 661.892 220.04 661.692 220.04 661.442V658.942C220.04 658.692 220.24 658.492 220.49 658.492H222.18C222.38 658.492 222.56 658.632 222.62 658.822L223.29 661.322C223.37 661.612 223.15 661.892 222.85 661.892Z" fill="#F5F5F5"/>
<path d="M226.11 661.892H223.75C223.5 661.892 223.3 661.692 223.3 661.442V658.942C223.3 658.692 223.5 658.492 223.75 658.492H225.44C225.64 658.492 225.82 658.632 225.88 658.822L226.55 661.322C226.63 661.612 226.41 661.892 226.11 661.892Z" fill="#F5F5F5"/>
<path d="M229.38 661.892H227.02C226.77 661.892 226.57 661.692 226.57 661.442V658.942C226.57 658.692 226.77 658.492 227.02 658.492H228.71C228.91 658.492 229.09 658.632 229.15 658.822L229.82 661.322C229.9 661.612 229.68 661.892 229.38 661.892Z" fill="#F5F5F5"/>
<path d="M232.64 661.892H230.28C230.03 661.892 229.83 661.692 229.83 661.442V658.942C229.83 658.692 230.03 658.492 230.28 658.492H231.97C232.17 658.492 232.35 658.632 232.41 658.822L233.08 661.322C233.16 661.612 232.94 661.892 232.64 661.892Z" fill="#F5F5F5"/>
<path d="M235.9 661.892H233.54C233.29 661.892 233.09 661.692 233.09 661.442V658.942C233.09 658.692 233.29 658.492 233.54 658.492H235.23C235.43 658.492 235.61 658.632 235.67 658.822L236.34 661.322C236.42 661.612 236.2 661.892 235.9 661.892Z" fill="#F5F5F5"/>
<path d="M238.27 660.192H185.51V664.122H238.27V660.192Z" fill="#ECECEC"/>
<path d="M61.0499 686.232H147.49C150.07 686.232 152.16 688.322 152.16 690.902V698.682H56.3899V690.902C56.3899 688.322 58.4799 686.232 61.0599 686.232H61.0499Z" fill="#E1E1E1"/>
<path d="M59.5101 769.562L90.2001 766.542V723.412H102.36V766.522L133.17 769.552C136.23 769.852 138.56 772.422 138.56 775.502V780.112H54.1201V775.502C54.1201 772.432 56.4501 769.852 59.5101 769.552V769.562Z" fill="#E1E1E1"/>
<path d="M127.36 785.832C127.36 790.222 130.92 793.782 135.31 793.782C139.7 793.782 143.26 790.222 143.26 785.832C143.26 781.442 139.7 777.882 135.31 777.882C130.92 777.882 127.36 781.442 127.36 785.832Z" fill="#E1E1E1"/>
<path d="M65.3199 785.832C65.3199 790.222 61.7599 793.782 57.3699 793.782C52.9799 793.782 49.4199 790.222 49.4199 785.832C49.4199 781.442 52.9799 777.882 57.3699 777.882C61.7599 777.882 65.3199 781.442 65.3199 785.832Z" fill="#E1E1E1"/>
<path d="M100.59 732.682H91.9599C89.8299 732.682 88.0999 730.952 88.0999 728.822V694.272H104.45V728.822C104.45 730.952 102.72 732.682 100.59 732.682Z" fill="#E7E7E7"/>
<path d="M112.44 687.032C108.2 670.982 98.6401 629.472 96.6301 574.632C96.3201 566.152 89.3301 559.462 80.8501 559.462H52.5401C43.8401 559.462 36.7801 566.482 36.7401 575.182C36.6301 600.972 38.4301 653.692 52.9801 696.552L106.86 694.572C110.7 694.432 113.42 690.772 112.44 687.052V687.032Z" fill="#ECECEC"/>
<path d="M104.82 693.662C104.82 693.662 90.28 641.942 87.88 576.462C87.59 568.642 81.14 562.462 73.32 562.462H47.21C39.19 562.462 32.67 568.932 32.64 576.962C32.54 600.752 34.2 654.132 47.62 693.662H104.83H104.82Z" fill="#E7E7E7"/>
<path d="M93.6101 656.072C93.6101 656.072 124.64 649.792 154.6 652.832C184.56 655.872 140.5 695.022 140.5 695.022H134.32C134.32 695.022 157.67 670.202 156.36 664.022C155.06 657.842 96.2701 665.992 96.2701 665.992L93.6101 656.082V656.072Z" fill="#E7E7E7"/>
<path d="M47.61 693.662H98.42C98.42 693.662 83.88 641.942 81.47 576.462C81.18 568.642 74.74 562.472 66.91 562.472H47.2C39.17 562.472 32.66 568.952 32.62 576.972C32.52 600.752 34.19 654.132 47.61 693.672V693.662Z" fill="#E1E1E1"/>
<path d="M153.69 692.452H48.4601C47.4218 692.452 46.5801 693.294 46.5801 694.332V696.792C46.5801 697.83 47.4218 698.672 48.4601 698.672H153.69C154.728 698.672 155.57 697.83 155.57 696.792V694.332C155.57 693.294 154.728 692.452 153.69 692.452Z" fill="#E1E1E1"/>
<path d="M538.17 741.882C538.19 741.322 540.07 685.642 549.13 676.832C557.94 668.272 568.05 676.512 568.47 676.872L569.38 675.782C569.27 675.682 557.86 666.372 548.14 675.822C538.68 685.022 536.82 739.532 536.75 741.842L538.17 741.882Z" fill="#E1E1E1"/>
<path d="M537.4 752.822C537.47 752.152 543.59 685.972 519.42 658.242L518.35 659.172C542.12 686.452 536.05 752.032 535.99 752.692L537.4 752.832V752.822Z" fill="#E1E1E1"/>
<path d="M538.29 745.822L539.7 745.732C539.65 744.982 534.97 670.492 552.7 654.192L551.74 653.152C533.51 669.912 538.08 742.742 538.29 745.832V745.822Z" fill="#E1E1E1"/>
<path d="M535.98 745.782H537.4C537.38 743.722 536.82 695.462 523.11 687.602C520.06 685.852 517.08 685.562 514.24 686.732C505.95 690.162 501.84 704.912 501.67 705.542L503.04 705.912C503.08 705.762 507.14 691.202 514.78 688.042C517.19 687.042 519.75 687.312 522.4 688.822C535.41 696.272 535.98 745.282 535.98 745.772V745.782Z" fill="#E1E1E1"/>
<path d="M541.32 745.812L542.73 745.732C542.71 745.352 540.66 707.592 550.85 694.292C553.32 691.072 556 689.532 558.83 689.732C565.51 690.202 571.11 699.972 571.16 700.072L572.39 699.372C572.15 698.942 566.36 688.842 558.93 688.322C555.6 688.082 552.5 689.812 549.72 693.432C539.21 707.152 541.22 744.242 541.31 745.812H541.32Z" fill="#E1E1E1"/>
<path d="M539.09 750.952C539.37 747.292 545.75 661.072 534.52 645.882L533.38 646.722C544.3 661.492 537.74 749.952 537.68 750.842L539.09 750.952Z" fill="#E1E1E1"/>
<path d="M511.18 695.472C511.18 695.472 517.92 697.952 515.92 703.822C513.92 709.682 492.61 719.342 492.61 719.342C492.61 719.342 483.69 711.162 491.88 697.862C500.07 684.562 511 691.282 511.18 695.482V695.472Z" fill="#ECECEC"/>
<path d="M540.47 684.302C540.47 684.302 533.29 684.002 532.89 690.182C532.48 696.362 548.43 713.472 548.43 713.472C548.43 713.472 559.81 709.352 557.37 693.922C554.92 678.492 542.25 680.492 540.47 684.292V684.302Z" fill="#ECECEC"/>
<path d="M546.55 654.702C546.55 654.702 541.77 654.192 542.15 651.272C542.54 648.362 560.75 640.862 571.49 652.982C571.49 652.982 564.61 664.802 554.66 664.952C544.71 665.102 546.54 654.692 546.54 654.692L546.55 654.702Z" fill="#ECECEC"/>
<path d="M537.63 647.632C537.63 647.632 541.96 649.722 543.18 647.052C544.39 644.372 532.9 628.382 517.37 632.992C517.37 632.992 516.96 646.662 525.32 652.052C533.68 657.442 537.63 647.642 537.63 647.642V647.632Z" fill="#ECECEC"/>
<path d="M560.29 693.112C560.29 693.112 556.99 690.442 560.55 689.142C564.11 687.842 581.6 688.212 581.78 705.532C581.78 705.532 561.42 708.912 558.9 702.322C556.38 695.722 560.29 693.112 560.29 693.112Z" fill="#ECECEC"/>
<path d="M518.76 654.272C518.76 654.272 522.06 651.602 518.5 650.302C514.94 649.002 497.45 649.372 497.27 666.692C497.27 666.692 517.63 670.072 520.15 663.482C522.67 656.882 518.76 654.272 518.76 654.272Z" fill="#ECECEC"/>
<path d="M529.53 668.222C529.53 668.222 529.82 664.982 527.2 666.252C524.58 667.522 515.47 677.352 524.92 686.682C524.92 686.682 537.64 677.262 535.35 672.362C533.06 667.452 529.53 668.222 529.53 668.222Z" fill="#ECECEC"/>
<path d="M563.24 672.842C563.24 672.842 561.27 670.252 564.16 669.932C567.05 669.612 580 673.072 576.99 686.002C576.99 686.002 561.21 684.812 560.53 679.442C559.85 674.072 563.24 672.842 563.24 672.842Z" fill="#ECECEC"/>
<path d="M509.92 793.782H564.07L569.91 734.492H504.08L509.92 793.782Z" fill="#F0F0F0"/>
<path d="M501.19 741.042H572.8V727.962H501.19V741.042Z" fill="#E7E7E7"/>
<path d="M42.7501 517.572C42.6001 517.572 42.4401 517.502 42.3501 517.372C42.1901 517.152 42.2301 516.832 42.4601 516.672C42.4801 516.662 44.5301 515.152 48.6401 512.392C48.8701 512.242 49.1801 512.302 49.3301 512.532C49.4801 512.762 49.4201 513.072 49.1901 513.222C45.1001 515.972 43.0701 517.462 43.0401 517.482C42.9501 517.552 42.8501 517.582 42.7401 517.582L42.7501 517.572Z" fill="#06B4FF"/>
<path d="M61.76 504.972C61.59 504.972 61.43 504.892 61.34 504.742C61.19 504.512 61.26 504.202 61.5 504.052C65.63 501.452 70.02 498.752 74.56 496.032C74.8 495.892 75.1 495.972 75.25 496.202C75.39 496.442 75.32 496.742 75.08 496.892C70.55 499.612 66.16 502.302 62.04 504.902C61.96 504.952 61.87 504.982 61.77 504.982L61.76 504.972ZM88.01 489.192C87.84 489.192 87.67 489.102 87.58 488.942C87.44 488.702 87.52 488.402 87.76 488.262C92.06 485.782 96.54 483.232 101.08 480.702C101.32 480.572 101.63 480.652 101.76 480.892C101.89 481.132 101.81 481.442 101.57 481.572C97.03 484.102 92.55 486.652 88.26 489.132C88.18 489.182 88.1 489.202 88.01 489.202V489.192ZM114.75 474.252C114.57 474.252 114.4 474.162 114.31 473.992C114.18 473.752 114.27 473.442 114.51 473.312C118.93 470.922 123.47 468.492 128.03 466.102C128.27 465.972 128.58 466.062 128.71 466.312C128.84 466.552 128.74 466.862 128.5 466.982C123.95 469.372 119.41 471.802 114.99 474.192C114.91 474.232 114.83 474.252 114.75 474.252ZM141.86 459.992C141.68 459.992 141.5 459.892 141.41 459.722C141.28 459.472 141.38 459.172 141.63 459.052C146.11 456.762 150.71 454.432 155.3 452.142C155.55 452.022 155.85 452.122 155.97 452.362C156.09 452.612 155.99 452.912 155.75 453.032C151.16 455.322 146.56 457.642 142.09 459.942C142.02 459.982 141.94 459.992 141.86 459.992ZM169.26 446.312C169.07 446.312 168.9 446.212 168.81 446.032C168.69 445.782 168.79 445.482 169.04 445.362C173.62 443.132 178.26 440.892 182.84 438.712C183.09 438.592 183.39 438.702 183.51 438.952C183.63 439.202 183.52 439.502 183.27 439.622C178.69 441.802 174.05 444.032 169.48 446.262C169.41 446.292 169.33 446.312 169.26 446.312ZM196.92 433.142C196.73 433.142 196.55 433.032 196.47 432.852C196.35 432.602 196.47 432.302 196.71 432.192C201.24 430.082 205.88 427.942 210.62 425.782C210.87 425.672 211.17 425.782 211.28 426.032C211.39 426.282 211.28 426.582 211.03 426.692C206.29 428.852 201.65 430.982 197.12 433.092C197.05 433.122 196.98 433.142 196.91 433.142H196.92ZM224.79 420.442C224.6 420.442 224.42 420.332 224.33 420.142C224.22 419.892 224.33 419.592 224.58 419.482C229.16 417.442 233.83 415.382 238.59 413.292C238.84 413.182 239.14 413.292 239.25 413.552C239.36 413.802 239.25 414.102 238.99 414.212C234.23 416.292 229.56 418.352 224.98 420.392C224.91 420.422 224.84 420.432 224.78 420.432L224.79 420.442ZM252.86 408.182C252.67 408.182 252.48 408.072 252.4 407.882C252.29 407.632 252.4 407.332 252.66 407.222C257.28 405.242 261.98 403.252 266.76 401.242C267.01 401.142 267.31 401.252 267.41 401.512C267.52 401.762 267.4 402.062 267.14 402.162C262.36 404.172 257.66 406.162 253.04 408.142C252.98 408.172 252.91 408.182 252.84 408.182H252.86ZM281.1 396.322C280.9 396.322 280.72 396.202 280.64 396.012C280.54 395.752 280.66 395.462 280.91 395.362C283.98 394.102 287.09 392.822 290.22 391.552C291.84 390.892 293.46 390.242 295.08 389.592C295.34 389.492 295.63 389.612 295.73 389.872C295.83 390.132 295.71 390.422 295.45 390.522C293.83 391.172 292.21 391.822 290.59 392.482C287.46 393.762 284.35 395.032 281.28 396.292C281.22 396.322 281.15 396.332 281.09 396.332L281.1 396.322ZM309.55 385.042C309.35 385.042 309.16 384.922 309.08 384.722C308.98 384.462 309.12 384.172 309.37 384.082C314.08 382.322 318.92 380.562 323.77 378.862C324.03 378.772 324.32 378.912 324.41 379.172C324.5 379.432 324.37 379.722 324.1 379.812C319.26 381.512 314.42 383.272 309.72 385.032C309.66 385.052 309.6 385.062 309.55 385.062V385.042ZM338.44 374.882C338.23 374.882 338.03 374.752 337.97 374.542C337.88 374.282 338.03 374.002 338.29 373.912C343.07 372.332 347.98 370.762 352.88 369.232C353.15 369.152 353.42 369.302 353.51 369.562C353.59 369.822 353.44 370.102 353.18 370.192C348.28 371.712 343.38 373.282 338.61 374.862C338.56 374.882 338.5 374.892 338.45 374.892L338.44 374.882ZM367.68 365.782C367.46 365.782 367.26 365.642 367.2 365.422C367.12 365.152 367.27 364.882 367.54 364.802C372.34 363.392 377.3 361.982 382.27 360.602C382.54 360.532 382.81 360.682 382.89 360.952C382.96 361.222 382.81 361.492 382.54 361.572C377.57 362.952 372.61 364.362 367.82 365.762C367.77 365.772 367.73 365.782 367.68 365.782ZM397.19 357.612C396.97 357.612 396.77 357.462 396.71 357.242C396.64 356.972 396.8 356.702 397.07 356.632C401.88 355.372 406.87 354.102 411.91 352.842C412.18 352.772 412.45 352.942 412.52 353.202C412.59 353.472 412.42 353.742 412.16 353.812C407.13 355.062 402.14 356.342 397.33 357.592C397.29 357.602 397.25 357.612 397.2 357.612H397.19ZM426.91 350.212C426.68 350.212 426.48 350.062 426.42 349.832C426.36 349.562 426.52 349.292 426.79 349.232C431.67 348.082 436.69 346.922 441.71 345.782C441.98 345.722 442.25 345.892 442.31 346.162C442.37 346.432 442.2 346.702 441.93 346.762C436.91 347.892 431.89 349.052 427.02 350.212C426.98 350.212 426.94 350.222 426.9 350.222L426.91 350.212ZM456.78 343.462C456.55 343.462 456.34 343.302 456.29 343.072C456.23 342.802 456.4 342.532 456.67 342.482C461.59 341.422 466.59 340.362 471.65 339.302C471.92 339.252 472.18 339.422 472.24 339.692C472.3 339.962 472.12 340.222 471.85 340.282C466.79 341.332 461.8 342.392 456.88 343.462C456.84 343.462 456.81 343.472 456.77 343.472L456.78 343.462ZM486.76 337.222C486.53 337.222 486.32 337.062 486.27 336.822C486.22 336.552 486.39 336.292 486.66 336.232C491.6 335.242 496.61 334.262 501.69 333.272C501.96 333.212 502.22 333.392 502.28 333.672C502.33 333.942 502.16 334.202 501.88 334.262C496.8 335.242 491.8 336.232 486.86 337.222C486.83 337.222 486.79 337.222 486.76 337.222ZM516.83 331.402C516.59 331.402 516.38 331.232 516.34 330.992C516.29 330.722 516.47 330.462 516.74 330.412C521.69 329.482 526.71 328.552 531.8 327.632C532.07 327.582 532.33 327.762 532.38 328.032C532.43 328.302 532.25 328.562 531.98 328.612C526.89 329.542 521.88 330.462 516.92 331.392C516.89 331.392 516.86 331.392 516.83 331.392V331.402Z" fill="#06B4FF"/>
<path d="M547.04 325.892C546.8 325.892 546.59 325.722 546.55 325.482C546.5 325.212 546.68 324.952 546.96 324.902C549.41 324.472 551.87 324.032 554.35 323.602C554.62 323.552 554.88 323.732 554.93 324.012C554.98 324.282 554.8 324.542 554.52 324.592C552.04 325.022 549.58 325.462 547.13 325.892C547.1 325.892 547.07 325.892 547.04 325.892Z" fill="#06B4FF"/>
<path d="M85.1512 612.301C114.759 608.045 135.31 580.593 131.054 550.986C126.798 521.378 99.3465 500.827 69.7391 505.083C40.1317 509.339 19.5802 536.791 23.8362 566.398C28.0921 596.005 55.5438 616.557 85.1512 612.301Z" fill="white"/>
<path d="M77.37 613.362C72.38 613.362 67.42 612.672 62.62 611.322C62.35 611.242 62.2 610.972 62.27 610.702C62.35 610.432 62.62 610.282 62.89 610.352C67.6 611.682 72.47 612.352 77.37 612.352H78.02C78.29 612.352 78.52 612.572 78.52 612.842C78.52 613.122 78.3 613.342 78.03 613.352H77.36L77.37 613.362ZM93.26 611.002C93.05 611.002 92.85 610.862 92.78 610.652C92.7 610.392 92.85 610.112 93.11 610.032C98.01 608.542 102.66 606.362 106.93 603.542C107.16 603.392 107.47 603.452 107.62 603.682C107.77 603.912 107.71 604.222 107.48 604.372C103.13 607.242 98.39 609.462 93.4 610.982C93.35 610.992 93.3 611.002 93.25 611.002H93.26ZM48.67 605.092C48.58 605.092 48.49 605.072 48.4 605.012C43.98 602.242 39.99 598.862 36.53 594.972C36.35 594.762 36.36 594.452 36.57 594.262C36.78 594.082 37.09 594.092 37.28 594.302C40.68 598.122 44.6 601.442 48.94 604.162C49.17 604.312 49.24 604.622 49.1 604.852C49.01 605.002 48.84 605.082 48.68 605.082L48.67 605.092ZM118.74 594.232C118.63 594.232 118.51 594.192 118.42 594.112C118.21 593.932 118.18 593.622 118.36 593.402C121.67 589.492 124.4 585.142 126.48 580.472C126.59 580.222 126.89 580.102 127.14 580.222C127.39 580.332 127.51 580.632 127.39 580.882C125.27 585.642 122.49 590.072 119.11 594.052C119.01 594.172 118.87 594.232 118.73 594.232H118.74ZM28.42 582.272C28.23 582.272 28.05 582.162 27.97 581.982C25.76 577.282 24.23 572.282 23.43 567.112L23.4 566.922C23.36 566.652 23.55 566.392 23.82 566.352C24.1 566.312 24.35 566.502 24.39 566.772L24.42 566.962C25.21 572.042 26.71 576.962 28.88 581.562C29 581.812 28.89 582.112 28.64 582.232C28.57 582.262 28.5 582.282 28.43 582.282L28.42 582.272ZM131.14 566.362C131.14 566.362 131.1 566.362 131.07 566.362C130.8 566.322 130.6 566.072 130.64 565.802C130.95 563.482 131.1 561.122 131.11 558.772C131.11 556.032 130.9 553.262 130.48 550.532C130.44 550.262 130.63 550.002 130.9 549.962C131.17 549.922 131.43 550.112 131.47 550.382C131.9 553.162 132.12 555.982 132.12 558.772C132.12 561.162 131.96 563.572 131.65 565.932C131.62 566.182 131.4 566.362 131.15 566.362H131.14ZM23.75 551.932C23.75 551.932 23.71 551.932 23.68 551.932C23.41 551.892 23.21 551.642 23.25 551.372C23.95 546.212 25.38 541.182 27.51 536.412C27.62 536.162 27.92 536.042 28.17 536.162C28.42 536.272 28.54 536.572 28.42 536.822C26.33 541.502 24.92 546.442 24.24 551.502C24.21 551.752 23.99 551.932 23.74 551.932H23.75ZM126.5 536.202C126.31 536.202 126.13 536.092 126.05 535.912C123.88 531.282 121.06 526.992 117.66 523.152C117.48 522.942 117.5 522.632 117.7 522.442C117.91 522.262 118.22 522.272 118.41 522.482C121.87 526.392 124.75 530.762 126.95 535.482C127.07 535.732 126.95 536.032 126.71 536.152C126.64 536.182 126.57 536.202 126.5 536.202ZM36.2 524.082C36.09 524.082 35.97 524.042 35.88 523.962C35.67 523.782 35.64 523.472 35.82 523.252C39.2 519.272 43.12 515.812 47.48 512.952C47.71 512.802 48.02 512.862 48.17 513.092C48.32 513.322 48.26 513.632 48.03 513.782C43.76 516.582 39.91 519.982 36.59 523.892C36.49 524.012 36.35 524.072 36.21 524.072L36.2 524.082ZM106.29 513.352C106.2 513.352 106.11 513.332 106.02 513.272C101.68 510.542 96.99 508.452 92.08 507.052C91.81 506.972 91.66 506.702 91.74 506.432C91.82 506.162 92.09 506.012 92.36 506.092C97.36 507.512 102.14 509.642 106.56 512.432C106.79 512.582 106.86 512.892 106.72 513.122C106.62 513.272 106.46 513.352 106.3 513.352H106.29ZM61.71 507.362C61.5 507.362 61.3 507.222 61.23 507.002C61.15 506.742 61.3 506.462 61.56 506.382C63.98 505.652 66.49 505.082 69.02 504.682C71.65 504.272 74.31 504.052 76.94 504.022C77.21 504.022 77.44 504.242 77.44 504.522C77.44 504.802 77.22 505.022 76.95 505.022C74.37 505.052 71.76 505.262 69.18 505.662C66.7 506.052 64.24 506.612 61.86 507.332C61.81 507.342 61.76 507.352 61.72 507.352L61.71 507.362Z" fill="#06B4FF"/>
<path d="M571.514 430.482C601.383 428.896 624.312 403.396 622.725 373.526C621.139 343.657 595.639 320.728 565.769 322.315C535.9 323.901 512.972 349.401 514.558 379.271C516.144 409.14 541.644 432.069 571.514 430.482Z" fill="white"/>
<path d="M568.66 431.012C568.34 431.012 568.02 431.012 567.7 431.012C567.42 431.012 567.2 430.782 567.21 430.502C567.21 430.222 567.45 430.042 567.72 430.012C572.85 430.112 577.95 429.462 582.87 428.122C583.14 428.052 583.41 428.202 583.48 428.472C583.55 428.742 583.4 429.012 583.13 429.082C578.42 430.372 573.55 431.022 568.66 431.022V431.012ZM552.49 428.552C552.49 428.552 552.39 428.552 552.34 428.532C547.37 426.982 542.65 424.722 538.31 421.822C538.08 421.672 538.02 421.362 538.17 421.132C538.32 420.902 538.63 420.842 538.86 420.992C543.11 423.842 547.75 426.062 552.63 427.582C552.89 427.662 553.04 427.942 552.96 428.212C552.89 428.422 552.7 428.562 552.48 428.562L552.49 428.552ZM597.13 422.952C596.96 422.952 596.8 422.872 596.7 422.712C596.56 422.472 596.63 422.172 596.86 422.022C601.19 419.352 605.13 416.052 608.57 412.222L608.67 412.112C608.85 411.902 609.17 411.892 609.38 412.072C609.59 412.252 609.6 412.572 609.42 412.782L609.32 412.892C605.82 416.792 601.8 420.152 597.39 422.872C597.31 422.922 597.22 422.942 597.13 422.942V422.952ZM527.12 411.602C526.98 411.602 526.84 411.542 526.74 411.422C523.39 407.422 520.63 402.972 518.55 398.192C518.44 397.942 518.55 397.642 518.81 397.532C519.06 397.422 519.36 397.532 519.47 397.792C521.51 402.482 524.21 406.852 527.5 410.772C527.68 410.982 527.65 411.302 527.44 411.472C527.35 411.552 527.23 411.592 527.12 411.592V411.602ZM617.6 400.122C617.53 400.122 617.45 400.102 617.39 400.072C617.14 399.952 617.03 399.652 617.15 399.402C619.35 394.792 620.87 389.882 621.67 384.822C621.71 384.552 621.98 384.362 622.24 384.402C622.51 384.442 622.7 384.702 622.66 384.972C621.84 390.132 620.29 395.122 618.05 399.822C617.97 400.002 617.79 400.112 617.6 400.112V400.122ZM514.94 383.632C514.69 383.632 514.48 383.442 514.44 383.192C514.15 380.922 514.01 378.612 514.01 376.332C514.01 373.432 514.24 370.502 514.7 367.642C514.74 367.372 515.01 367.182 515.27 367.232C515.54 367.272 515.73 367.532 515.69 367.802C515.24 370.612 515.01 373.482 515.01 376.332C515.01 378.572 515.15 380.832 515.43 383.072C515.46 383.342 515.27 383.592 515 383.632C514.98 383.632 514.96 383.632 514.94 383.632ZM622.41 369.992C622.16 369.992 621.95 369.812 621.91 369.552C621.26 364.462 619.9 359.512 617.85 354.832C617.74 354.582 617.85 354.282 618.11 354.172C618.36 354.062 618.66 354.172 618.77 354.432C620.85 359.202 622.24 364.242 622.9 369.432C622.94 369.702 622.74 369.952 622.47 369.992C622.45 369.992 622.43 369.992 622.41 369.992ZM519.79 353.502C519.72 353.502 519.64 353.482 519.57 353.452C519.32 353.332 519.22 353.032 519.33 352.782C521.57 348.102 524.47 343.752 527.97 339.852C528.16 339.642 528.47 339.632 528.68 339.812C528.89 339.992 528.9 340.312 528.72 340.522C525.29 344.352 522.43 348.622 520.24 353.222C520.15 353.402 519.98 353.502 519.79 353.502ZM610.19 342.032C610.05 342.032 609.91 341.972 609.81 341.852C608.2 339.942 606.44 338.112 604.56 336.432C602.63 334.702 600.57 333.092 598.43 331.662C598.2 331.512 598.14 331.202 598.29 330.972C598.44 330.742 598.75 330.682 598.98 330.832C601.16 332.292 603.26 333.922 605.23 335.692C607.14 337.412 608.94 339.262 610.57 341.212C610.75 341.422 610.72 341.742 610.51 341.912C610.42 341.992 610.3 342.032 610.19 342.032ZM540.16 330.782C539.99 330.782 539.83 330.702 539.74 330.542C539.59 330.312 539.67 330.002 539.9 329.852C544.33 327.112 549.12 325.012 554.16 323.632C554.43 323.562 554.7 323.712 554.78 323.982C554.85 324.252 554.7 324.522 554.43 324.592C549.49 325.952 544.78 328.002 540.43 330.692C540.35 330.742 540.26 330.772 540.17 330.772L540.16 330.782ZM584.8 325.122C584.8 325.122 584.7 325.122 584.65 325.102C579.77 323.582 574.7 322.772 569.57 322.692C569.29 322.692 569.07 322.462 569.08 322.182C569.08 321.902 569.29 321.712 569.59 321.692C574.81 321.772 579.98 322.602 584.95 324.142C585.21 324.222 585.36 324.502 585.28 324.772C585.21 324.982 585.02 325.122 584.8 325.122Z" fill="#06B4FF"/>
<path d="M469.437 151.08C497.25 123.267 497.25 78.1732 469.437 50.3601C441.624 22.547 396.53 22.5469 368.717 50.3601C340.904 78.1732 340.904 123.267 368.717 151.08C396.53 178.894 441.624 178.894 469.437 151.08Z" fill="white"/>
<path d="M419.06 172.462H418.27C417.99 172.462 417.77 172.232 417.78 171.952C417.78 171.672 417.99 171.452 418.29 171.462H419.07C423.73 171.462 428.42 170.992 433.01 170.072C433.28 170.022 433.54 170.192 433.6 170.462C433.65 170.732 433.48 170.992 433.21 171.052C428.56 171.992 423.8 172.472 419.07 172.472L419.06 172.462ZM403.49 170.732C403.49 170.732 403.42 170.732 403.38 170.722C398.51 169.622 393.73 168.012 389.18 165.922C388.93 165.802 388.82 165.512 388.93 165.262C389.05 165.012 389.34 164.902 389.59 165.012C394.08 167.072 398.79 168.662 403.59 169.752C403.86 169.812 404.03 170.082 403.97 170.352C403.92 170.582 403.71 170.742 403.48 170.742L403.49 170.732ZM447.31 166.622C447.12 166.622 446.93 166.512 446.85 166.322C446.74 166.072 446.85 165.772 447.11 165.662C451.65 163.712 455.99 161.272 460.01 158.422C460.23 158.262 460.55 158.312 460.71 158.542C460.87 158.772 460.82 159.082 460.59 159.242C456.52 162.132 452.12 164.602 447.51 166.582C447.45 166.612 447.38 166.622 447.31 166.622ZM376.58 158.382C376.48 158.382 376.37 158.352 376.28 158.282C372.26 155.292 368.54 151.882 365.24 148.132C365.06 147.922 365.08 147.612 365.28 147.422C365.49 147.242 365.8 147.262 365.99 147.462C369.25 151.152 372.91 154.522 376.87 157.472C377.09 157.632 377.14 157.952 376.97 158.172C376.87 158.302 376.72 158.372 376.57 158.372L376.58 158.382ZM471.47 149.492C471.35 149.492 471.23 149.452 471.13 149.362C470.93 149.172 470.91 148.862 471.1 148.652C474.43 145.022 477.4 141.032 479.92 136.782C480.06 136.542 480.37 136.462 480.61 136.602C480.85 136.742 480.93 137.052 480.79 137.292C478.24 141.602 475.23 145.652 471.85 149.332C471.75 149.442 471.62 149.492 471.48 149.492H471.47ZM357 136.152C356.83 136.152 356.66 136.062 356.56 135.892C354.12 131.552 352.13 126.922 350.63 122.122L351.08 121.882L351.56 121.732L351.59 121.822C353.07 126.552 355.04 131.112 357.44 135.392C357.58 135.632 357.49 135.942 357.25 136.072C357.17 136.112 357.09 136.132 357 136.132V136.152ZM486.57 124.012C486.52 124.012 486.46 124.012 486.41 123.982C486.15 123.892 486.01 123.612 486.1 123.352C487.68 118.672 488.78 113.822 489.35 108.932C489.38 108.662 489.62 108.462 489.91 108.492C490.18 108.522 490.38 108.772 490.35 109.042C489.77 114.002 488.66 118.922 487.05 123.662C486.98 123.872 486.78 124.002 486.58 124.002L486.57 124.012ZM348.15 107.802C347.9 107.802 347.68 107.612 347.65 107.352C347.44 105.152 347.34 102.922 347.34 100.712C347.34 97.9319 347.5 95.1319 347.83 92.3619C347.86 92.0919 348.12 91.8919 348.38 91.9219C348.65 91.9519 348.85 92.2019 348.82 92.4819C348.5 95.2119 348.34 97.9819 348.34 100.712C348.34 102.892 348.44 105.092 348.65 107.262C348.68 107.532 348.47 107.782 348.2 107.802C348.18 107.802 348.17 107.802 348.15 107.802ZM490.01 94.6019C489.76 94.6019 489.54 94.4119 489.51 94.1519C489.05 89.2619 488.07 84.3919 486.59 79.6619C486.51 79.4019 486.66 79.1219 486.92 79.0319C487.18 78.9519 487.46 79.1019 487.55 79.3619C489.05 84.1619 490.04 89.1019 490.51 94.0619C490.54 94.3319 490.33 94.5819 490.06 94.6019C490.04 94.6019 490.03 94.6019 490.01 94.6019ZM351.61 78.3919C351.56 78.3919 351.5 78.3919 351.45 78.3619C351.19 78.2719 351.05 77.9919 351.14 77.7319C352.75 73.0019 354.86 68.4119 357.41 64.1119C357.55 63.8719 357.86 63.8019 358.09 63.9319C358.33 64.0719 358.41 64.3819 358.26 64.6219C355.74 68.8619 353.67 73.3819 352.08 78.0519C352.01 78.2619 351.81 78.3919 351.61 78.3919ZM481.19 66.3319C481.02 66.3319 480.85 66.2419 480.75 66.0719C478.34 61.7719 475.46 57.7119 472.2 54.0119C472.02 53.8019 472.04 53.4919 472.24 53.3019C472.45 53.1219 472.76 53.1419 472.95 53.3419C476.26 57.1019 479.17 61.2119 481.62 65.5819C481.75 65.8219 481.67 66.1319 481.43 66.2619C481.35 66.3019 481.27 66.3219 481.19 66.3219V66.3319ZM366.72 52.9219C366.6 52.9219 366.48 52.8819 366.38 52.7919C366.18 52.6019 366.16 52.2919 366.35 52.0819C369.75 48.3919 373.53 45.0619 377.61 42.1819C377.83 42.0219 378.15 42.0719 378.31 42.3019C378.47 42.5319 378.42 42.8419 378.19 43.0019C374.17 45.8419 370.44 49.1319 367.09 52.7719C366.99 52.8819 366.86 52.9319 366.72 52.9319V52.9219ZM461.62 44.0919C461.52 44.0919 461.41 44.0619 461.32 43.9919C457.36 41.0519 453.08 38.5119 448.6 36.4519C448.35 36.3319 448.24 36.0419 448.35 35.7919C448.47 35.5419 448.77 35.4319 449.01 35.5419C453.56 37.6319 457.9 40.2019 461.91 43.1819C462.13 43.3519 462.18 43.6619 462.01 43.8819C461.91 44.0119 461.76 44.0819 461.61 44.0819L461.62 44.0919ZM390.89 35.8019C390.7 35.8019 390.51 35.6919 390.43 35.5019C390.32 35.2519 390.43 34.9519 390.69 34.8419C392.95 33.8719 395.3 33.0019 397.66 32.2619C400.07 31.5119 402.54 30.8719 405 30.3819C405.27 30.3319 405.53 30.5019 405.59 30.7719C405.64 31.0419 405.47 31.3019 405.2 31.3619C402.77 31.8519 400.34 32.4719 397.96 33.2219C395.63 33.9519 393.31 34.8019 391.08 35.7619C391.02 35.7919 390.95 35.8019 390.88 35.8019H390.89ZM434.71 31.7219C434.71 31.7219 434.64 31.7219 434.6 31.7119C429.78 30.6219 424.85 30.0419 419.92 29.9819C419.64 29.9819 419.42 29.7519 419.43 29.4719C419.43 29.2019 419.66 28.9819 419.93 28.9819C424.93 29.0419 429.93 29.6319 434.82 30.7319C435.09 30.7919 435.26 31.0619 435.2 31.3319C435.15 31.5619 434.94 31.7219 434.71 31.7219Z" fill="#06B4FF"/>
<path d="M181.538 205.906C184.134 170.295 157.371 139.322 121.76 136.726C86.1495 134.129 55.1766 160.893 52.5802 196.504C49.9839 232.114 76.7473 263.087 112.358 265.684C147.969 268.28 178.942 241.516 181.538 205.906Z" fill="white"/>
<path d="M117.11 266.342C113.15 266.342 109.17 265.972 105.26 265.252C104.99 265.202 104.81 264.942 104.86 264.672C104.91 264.402 105.17 264.222 105.44 264.272C110.16 265.142 114.98 265.482 119.77 265.282C120.06 265.282 120.28 265.482 120.29 265.762C120.3 266.042 120.09 266.272 119.81 266.282C118.91 266.322 118.01 266.342 117.1 266.342H117.11ZM134.1 264.052C133.88 264.052 133.68 263.902 133.62 263.682C133.55 263.412 133.7 263.142 133.97 263.072C138.57 261.812 143.06 260.022 147.31 257.742L147.43 257.672C147.67 257.542 147.98 257.632 148.11 257.872C148.24 258.112 148.15 258.422 147.91 258.552L147.79 258.622C143.47 260.932 138.92 262.752 134.24 264.032C134.2 264.042 134.15 264.052 134.11 264.052H134.1ZM91.5101 261.062C91.4401 261.062 91.3801 261.052 91.3101 261.022C86.8301 259.102 82.5701 256.672 78.6401 253.802C78.4201 253.642 78.3701 253.322 78.5301 253.102C78.6901 252.882 79.0101 252.832 79.2301 252.992C83.1001 255.812 87.3001 258.202 91.7101 260.092C91.9601 260.202 92.0801 260.492 91.9701 260.752C91.8901 260.942 91.7001 261.052 91.5101 261.052V261.062ZM159.58 250.392C159.44 250.392 159.3 250.332 159.2 250.222C159.02 250.012 159.04 249.702 159.25 249.512C162.86 246.362 166.13 242.802 168.95 238.922C169.11 238.702 169.42 238.652 169.65 238.812C169.87 238.972 169.92 239.282 169.76 239.512C166.9 243.452 163.58 247.072 159.91 250.272C159.82 250.352 159.7 250.392 159.58 250.392ZM68.2701 244.112C68.1301 244.112 67.9901 244.052 67.8901 243.942C64.7101 240.282 61.9301 236.242 59.6201 231.932C59.4901 231.692 59.5801 231.382 59.8301 231.252C60.0701 231.122 60.3801 231.212 60.5101 231.462C62.7801 235.712 65.5201 239.692 68.6501 243.292C68.8301 243.502 68.8101 243.812 68.6001 244.002C68.5101 244.082 68.3901 244.122 68.2701 244.122V244.112ZM176.49 227.122C176.42 227.122 176.36 227.112 176.29 227.082C176.04 226.972 175.92 226.682 176.03 226.422C177.92 222.012 179.31 217.382 180.17 212.672C180.22 212.402 180.48 212.222 180.75 212.272C181.02 212.322 181.2 212.582 181.15 212.852C180.27 217.642 178.86 222.342 176.94 226.822C176.86 227.012 176.67 227.122 176.48 227.122H176.49ZM54.6901 218.742C54.4701 218.742 54.2701 218.592 54.2101 218.372C52.9201 213.682 52.1601 208.832 51.9601 203.962C51.9501 203.682 52.1601 203.452 52.4401 203.442C52.7101 203.442 52.9501 203.642 52.9601 203.922C53.1601 208.712 53.9101 213.492 55.1801 218.112C55.2501 218.382 55.1001 218.652 54.8301 218.722C54.7901 218.732 54.7401 218.742 54.7001 218.742H54.6901ZM181.66 198.822C181.39 198.822 181.17 198.612 181.16 198.342C180.95 193.552 180.2 188.782 178.93 184.152C178.86 183.882 179.01 183.612 179.28 183.542C179.55 183.472 179.82 183.622 179.89 183.892C181.19 188.582 181.95 193.432 182.16 198.302C182.17 198.582 181.96 198.812 181.68 198.822C181.68 198.822 181.67 198.822 181.66 198.822ZM53.4701 190.002C53.4701 190.002 53.4101 190.002 53.3801 190.002C53.1101 189.952 52.9301 189.692 52.9801 189.422C53.8601 184.632 55.2801 179.932 57.2001 175.462C57.3101 175.212 57.6001 175.092 57.8601 175.202C58.1101 175.312 58.2301 175.602 58.1201 175.862C56.2301 180.272 54.8301 184.892 53.9601 189.612C53.9201 189.852 53.7101 190.022 53.4701 190.022V190.002ZM174.02 171.082C173.84 171.082 173.67 170.982 173.58 170.822C171.3 166.582 168.56 162.602 165.43 159.002C165.25 158.792 165.27 158.482 165.48 158.292C165.69 158.112 166 158.132 166.19 158.342C169.37 162.002 172.16 166.042 174.47 170.342C174.6 170.582 174.51 170.892 174.27 171.022C174.19 171.062 174.11 171.082 174.03 171.082H174.02ZM64.8101 163.562C64.7101 163.562 64.6001 163.532 64.5201 163.462C64.3001 163.302 64.2501 162.982 64.4101 162.762C67.2801 158.822 70.5901 155.212 74.2701 152.012C74.4801 151.832 74.7901 151.852 74.9801 152.062C75.1601 152.272 75.1401 152.582 74.9301 152.772C71.3101 155.922 68.0501 159.482 65.2201 163.352C65.1201 163.482 64.9701 163.562 64.8201 163.562H64.8101ZM155.13 149.392C155.03 149.392 154.93 149.362 154.84 149.292C150.97 146.472 146.77 144.092 142.35 142.202C142.1 142.092 141.98 141.802 142.09 141.542C142.2 141.282 142.49 141.172 142.75 141.282C147.23 143.202 151.5 145.622 155.43 148.482C155.65 148.642 155.7 148.962 155.54 149.182C155.44 149.312 155.29 149.392 155.14 149.392H155.13ZM86.5501 144.652C86.3701 144.652 86.1901 144.562 86.1001 144.402C85.9701 144.162 86.0301 143.872 86.2701 143.742L86.3501 143.702C90.6301 141.412 95.1601 139.602 99.8101 138.322C100.07 138.252 100.35 138.402 100.42 138.672C100.49 138.942 100.34 139.212 100.07 139.282C95.4901 140.542 91.0201 142.332 86.8001 144.592C86.7201 144.632 86.6301 144.652 86.5401 144.652H86.5501ZM128.69 138.062C128.69 138.062 128.63 138.062 128.6 138.062C124.77 137.362 120.89 136.972 116.97 137.002C116.07 137.002 115.17 137.022 114.27 137.062C113.99 137.082 113.76 136.862 113.75 136.582C113.74 136.302 113.95 136.072 114.23 136.062C115.16 136.022 116.08 136.022 117.01 136.002C120.94 136.002 124.91 136.362 128.79 137.072C129.06 137.122 129.24 137.382 129.19 137.652C129.15 137.892 128.94 138.062 128.7 138.062H128.69Z" fill="#06B4FF"/>
<path d="M293.26 561.812C291.01 561.812 288.76 561.582 286.57 561.122C286.3 561.062 286.13 560.802 286.18 560.532C286.24 560.262 286.5 560.082 286.77 560.142C291.41 561.112 296.3 561.022 300.91 559.882C301.19 559.812 301.45 559.982 301.52 560.252C301.59 560.522 301.42 560.792 301.15 560.862C298.57 561.502 295.91 561.822 293.26 561.822V561.812ZM273.31 555.022L273.62 554.632L273.25 554.972C269.3 551.922 266.18 548.132 263.97 543.712C263.85 543.462 263.95 543.162 264.19 543.042C264.44 542.922 264.74 543.022 264.86 543.262C267.01 547.552 270.03 551.222 273.85 554.172L273.62 554.622L273.31 555.012V555.022ZM313.86 554.402C313.72 554.402 313.57 554.342 313.48 554.222C313.3 554.012 313.33 553.692 313.55 553.522C315.35 552.022 317 550.322 318.45 548.452C319.92 546.542 321.18 544.472 322.18 542.312C322.3 542.062 322.59 541.952 322.84 542.062C323.09 542.182 323.2 542.472 323.09 542.722C322.06 544.962 320.77 547.092 319.25 549.062C317.76 550.992 316.06 552.752 314.2 554.292C314.11 554.372 313.99 554.412 313.88 554.412L313.86 554.402ZM260.99 530.022C260.72 530.022 260.49 529.802 260.49 529.532V528.992C260.49 524.212 261.5 519.592 263.5 515.262C263.62 515.012 263.91 514.902 264.16 515.022C264.41 515.142 264.52 515.432 264.4 515.682C262.46 519.872 261.48 524.352 261.48 528.992V529.522C261.48 529.802 261.27 530.022 260.99 530.032V530.022ZM325.56 528.952C325.29 528.952 325.06 528.732 325.06 528.462C324.97 523.712 323.81 518.962 321.68 514.732C321.56 514.482 321.66 514.182 321.9 514.062C322.14 513.942 322.45 514.032 322.57 514.282C324.76 518.652 325.97 523.542 326.05 528.452C326.05 528.732 325.84 528.952 325.56 528.962V528.952ZM272.73 504.592C272.59 504.592 272.44 504.532 272.34 504.412C272.16 504.202 272.19 503.882 272.41 503.712C276.18 500.602 280.68 498.342 285.45 497.172C285.72 497.102 285.99 497.272 286.05 497.542C286.12 497.812 285.95 498.082 285.68 498.142C281.06 499.272 276.69 501.462 273.04 504.482C272.95 504.562 272.83 504.592 272.72 504.592H272.73ZM312.97 503.932C312.86 503.932 312.76 503.902 312.67 503.832C308.84 500.882 304.52 498.892 299.83 497.902C299.56 497.842 299.39 497.582 299.44 497.312C299.5 497.042 299.77 496.862 300.03 496.922C304.87 497.942 309.33 499.992 313.27 503.032C313.49 503.202 313.53 503.512 313.36 503.732C313.26 503.862 313.11 503.932 312.96 503.932H312.97Z" fill="#06B4FF"/>
<path d="M401.74 170.312C401.74 170.312 401.67 170.312 401.63 170.302C401.6 170.302 399 169.712 394.38 168.232C394.12 168.152 393.97 167.862 394.06 167.602C394.14 167.342 394.43 167.192 394.69 167.282C399.26 168.742 401.83 169.322 401.85 169.322C402.12 169.382 402.29 169.652 402.23 169.922C402.18 170.152 401.97 170.312 401.74 170.312Z" fill="#06B4FF"/>
<path d="M380.74 163.212C380.68 163.212 380.61 163.202 380.55 163.172C376.15 161.382 371.62 159.372 367.08 157.212C366.83 157.092 366.73 156.792 366.84 156.542C366.96 156.292 367.26 156.192 367.51 156.302C372.02 158.462 376.54 160.452 380.92 162.242C381.18 162.342 381.3 162.642 381.19 162.892C381.11 163.082 380.92 163.202 380.73 163.202L380.74 163.212ZM354.21 150.592C354.13 150.592 354.05 150.572 353.97 150.532C349.72 148.232 345.43 145.772 341.2 143.212C340.96 143.072 340.89 142.762 341.03 142.522C341.17 142.282 341.48 142.212 341.72 142.352C345.93 144.902 350.22 147.352 354.45 149.652C354.69 149.782 354.78 150.092 354.65 150.332C354.56 150.502 354.39 150.592 354.21 150.592ZM329.06 135.402C328.96 135.402 328.87 135.372 328.78 135.322C324.75 132.632 320.69 129.802 316.71 126.902C316.49 126.742 316.44 126.422 316.6 126.202C316.76 125.982 317.08 125.932 317.3 126.092C321.27 128.982 325.32 131.802 329.34 134.482C329.57 134.632 329.63 134.942 329.48 135.172C329.38 135.312 329.23 135.392 329.06 135.392V135.402ZM305.3 118.112C305.19 118.112 305.08 118.072 304.99 118.002C301.19 114.992 297.36 111.852 293.62 108.662C293.41 108.482 293.39 108.162 293.56 107.952C293.74 107.742 294.06 107.722 294.27 107.892C298 111.082 301.81 114.212 305.61 117.212C305.83 117.382 305.86 117.702 305.69 117.912C305.59 118.032 305.44 118.102 305.3 118.102V118.112ZM282.95 99.0323C282.83 99.0323 282.71 98.9923 282.61 98.9023C279.03 95.6123 275.45 92.2023 271.96 88.7523C271.76 88.5623 271.76 88.2423 271.96 88.0423C272.15 87.8423 272.47 87.8423 272.67 88.0423C276.15 91.4823 279.73 94.8823 283.3 98.1623C283.5 98.3523 283.52 98.6623 283.33 98.8723C283.23 98.9823 283.1 99.0323 282.96 99.0323H282.95ZM262.02 78.4023C261.89 78.4023 261.76 78.3523 261.66 78.2423C258.33 74.7223 254.98 71.0723 251.71 67.4023C251.53 67.1923 251.55 66.8823 251.75 66.6923C251.96 66.5123 252.27 66.5223 252.46 66.7323C255.72 70.4023 259.06 74.0423 262.38 77.5523C262.57 77.7523 262.56 78.0723 262.36 78.2623C262.26 78.3523 262.14 78.4023 262.02 78.4023Z" fill="#06B4FF"/>
<path d="M242.48 56.4122C242.34 56.4122 242.19 56.3522 242.1 56.2322C240.51 54.3322 238.93 52.3922 237.34 50.4322C237.17 50.2222 237.2 49.9022 237.42 49.7322C237.63 49.5622 237.95 49.5922 238.12 49.8122C239.7 51.7722 241.29 53.7022 242.87 55.6022C243.05 55.8122 243.02 56.1322 242.81 56.3022C242.72 56.3822 242.6 56.4222 242.49 56.4222L242.48 56.4122Z" fill="#06B4FF"/>
<path d="M77.7902 150.312C77.6402 150.312 77.4902 150.242 77.3902 150.112C77.2202 149.892 77.2702 149.582 77.4902 149.412C79.4502 147.942 81.4902 146.452 83.5702 144.992C83.7902 144.832 84.1102 144.882 84.2702 145.112C84.4302 145.342 84.3802 145.652 84.1502 145.812C82.0902 147.272 80.0502 148.752 78.1002 150.222C78.0102 150.292 77.9002 150.322 77.8002 150.322L77.7902 150.312Z" fill="#06B4FF"/>
<path d="M95.9902 137.752C95.8202 137.752 95.6602 137.672 95.5702 137.522C95.4202 137.292 95.4902 136.982 95.7202 136.832C99.7102 134.282 103.92 131.712 108.24 129.202C108.48 129.062 108.78 129.142 108.92 129.382C109.06 129.622 108.98 129.922 108.74 130.062C104.44 132.572 100.24 135.132 96.2602 137.672C96.1802 137.722 96.0802 137.752 95.9902 137.752ZM121.27 122.982C121.09 122.982 120.92 122.882 120.83 122.722C120.7 122.482 120.79 122.172 121.03 122.042C125.21 119.792 129.59 117.522 134.04 115.292C134.29 115.172 134.59 115.272 134.71 115.512C134.83 115.762 134.73 116.062 134.49 116.182C130.05 118.402 125.68 120.672 121.5 122.912C121.42 122.952 121.34 122.972 121.26 122.972L121.27 122.982ZM147.45 109.872C147.26 109.872 147.08 109.762 147 109.582C146.88 109.332 147 109.032 147.24 108.912C151.55 106.892 156.04 104.862 160.59 102.862C160.84 102.752 161.14 102.862 161.25 103.122C161.36 103.372 161.25 103.672 160.99 103.782C156.45 105.782 151.97 107.812 147.66 109.822C147.59 109.852 147.52 109.872 147.45 109.872ZM174.25 98.072C174.05 98.072 173.87 97.952 173.79 97.762C173.68 97.502 173.81 97.212 174.06 97.112C178.48 95.282 183.05 93.432 187.64 91.632C187.9 91.532 188.19 91.662 188.29 91.912C188.39 92.172 188.26 92.462 188.01 92.562C183.43 94.362 178.86 96.212 174.45 98.042C174.39 98.072 174.32 98.082 174.26 98.082L174.25 98.072ZM201.5 87.352C201.3 87.352 201.11 87.232 201.03 87.022C200.93 86.762 201.06 86.472 201.32 86.382C205.83 84.702 210.47 83.002 215.11 81.352C215.37 81.262 215.66 81.392 215.75 81.652C215.84 81.912 215.71 82.202 215.45 82.292C210.82 83.942 206.18 85.632 201.68 87.312C201.62 87.332 201.56 87.342 201.51 87.342L201.5 87.352ZM229.11 77.522C228.9 77.522 228.71 77.392 228.64 77.182C228.55 76.922 228.69 76.632 228.95 76.552C233.49 75.012 238.17 73.452 242.86 71.932C243.12 71.842 243.4 71.992 243.49 72.252C243.58 72.512 243.43 72.792 243.17 72.882C238.49 74.402 233.82 75.952 229.28 77.492C229.23 77.512 229.17 77.522 229.12 77.522H229.11ZM256.97 68.472C256.76 68.472 256.56 68.332 256.49 68.122C256.41 67.862 256.56 67.582 256.82 67.492C261.41 66.062 266.13 64.632 270.84 63.222C271.11 63.142 271.38 63.292 271.46 63.562C271.54 63.822 271.39 64.102 271.12 64.182C266.41 65.582 261.7 67.022 257.11 68.442C257.06 68.462 257.01 68.462 256.96 68.462L256.97 68.472ZM285.04 60.102C284.82 60.102 284.62 59.962 284.56 59.742C284.48 59.472 284.64 59.202 284.9 59.122C289.54 57.792 294.29 56.462 299.01 55.172C299.28 55.102 299.55 55.252 299.62 55.522C299.69 55.792 299.54 56.062 299.27 56.132C294.55 57.422 289.81 58.752 285.17 60.082C285.12 60.092 285.08 60.102 285.03 60.102H285.04ZM313.29 52.352C313.07 52.352 312.87 52.202 312.81 51.982C312.74 51.712 312.9 51.442 313.17 51.372C317.85 50.142 322.63 48.912 327.36 47.712C327.63 47.642 327.9 47.802 327.97 48.072C328.04 48.342 327.88 48.612 327.61 48.682C322.88 49.872 318.11 51.102 313.43 52.342C313.39 52.352 313.35 52.362 313.3 52.362L313.29 52.352ZM341.7 45.182C341.47 45.182 341.27 45.032 341.21 44.802C341.15 44.532 341.31 44.262 341.58 44.202C346.29 43.062 351.09 41.922 355.84 40.822C356.11 40.762 356.38 40.932 356.44 41.192C356.5 41.462 356.33 41.732 356.07 41.792C351.32 42.892 346.52 44.032 341.82 45.172C341.78 45.172 341.74 45.182 341.7 45.182ZM370.25 38.572C370.02 38.572 369.81 38.412 369.76 38.182C369.7 37.912 369.87 37.642 370.14 37.582C374.97 36.512 379.8 35.472 384.47 34.492C384.74 34.432 385.01 34.612 385.06 34.882C385.12 35.152 384.94 35.422 384.67 35.472C380 36.452 375.18 37.492 370.35 38.552C370.31 38.552 370.28 38.562 370.24 38.562L370.25 38.572Z" fill="#06B4FF"/>
<path d="M398.66 32.602C398.43 32.602 398.22 32.432 398.17 32.202C398.12 31.932 398.29 31.672 398.56 31.612C403.33 30.682 405.93 30.212 405.93 30.212C406.2 30.162 406.46 30.342 406.51 30.612C406.56 30.882 406.38 31.142 406.11 31.192C406.11 31.192 403.51 31.662 398.75 32.592C398.72 32.592 398.69 32.592 398.65 32.592L398.66 32.602Z" fill="#06B4FF"/>
<path d="M568.67 431.012H568.65C568.65 431.012 565.99 430.902 561.15 430.552C560.87 430.532 560.67 430.292 560.69 430.012C560.71 429.732 560.95 429.532 561.23 429.552C566.05 429.902 568.67 430.012 568.7 430.012C568.98 430.022 569.19 430.262 569.18 430.532C569.17 430.802 568.95 431.012 568.68 431.012H568.67Z" fill="#06B4FF"/>
<path d="M545.93 429.242C545.93 429.242 545.9 429.242 545.88 429.242C540.95 428.762 535.82 428.202 530.61 427.582C530.34 427.552 530.14 427.302 530.17 427.032C530.2 426.762 530.45 426.552 530.72 426.592C535.92 427.202 541.05 427.762 545.97 428.242C546.24 428.272 546.45 428.512 546.42 428.792C546.39 429.052 546.18 429.242 545.92 429.242H545.93ZM515.45 425.652C515.45 425.652 515.4 425.652 515.38 425.652C510.34 424.962 505.23 424.222 500.19 423.452C499.92 423.412 499.73 423.152 499.77 422.882C499.81 422.612 500.07 422.422 500.34 422.462C505.38 423.232 510.48 423.972 515.52 424.662C515.79 424.702 515.98 424.952 515.95 425.222C515.92 425.472 515.7 425.652 515.46 425.652H515.45ZM485.12 421.022C485.12 421.022 485.06 421.022 485.04 421.022C480.07 420.182 474.98 419.282 469.93 418.352C469.66 418.302 469.48 418.042 469.53 417.772C469.58 417.502 469.84 417.322 470.11 417.372C475.16 418.302 480.24 419.202 485.21 420.042C485.48 420.092 485.67 420.342 485.62 420.622C485.58 420.862 485.37 421.042 485.13 421.042L485.12 421.022ZM454.95 415.462C454.95 415.462 454.89 415.462 454.85 415.462C449.84 414.462 444.78 413.412 439.82 412.352C439.55 412.292 439.38 412.032 439.44 411.762C439.5 411.492 439.76 411.332 440.03 411.382C444.98 412.452 450.03 413.492 455.04 414.492C455.31 414.542 455.49 414.812 455.43 415.082C455.38 415.322 455.17 415.482 454.94 415.482L454.95 415.462ZM424.96 409.022C424.96 409.022 424.89 409.022 424.85 409.012C419.9 407.872 414.88 406.682 409.92 405.462C409.65 405.392 409.49 405.122 409.55 404.862C409.62 404.592 409.88 404.432 410.15 404.492C415.1 405.702 420.12 406.902 425.06 408.042C425.33 408.102 425.5 408.372 425.44 408.642C425.39 408.872 425.18 409.032 424.95 409.032L424.96 409.022ZM395.17 401.712C395.17 401.712 395.09 401.712 395.04 401.692C390.1 400.402 385.11 399.062 380.22 397.712C379.95 397.642 379.8 397.362 379.87 397.092C379.94 396.822 380.22 396.672 380.48 396.742C385.36 398.092 390.35 399.432 395.28 400.722C395.55 400.792 395.71 401.062 395.64 401.332C395.58 401.562 395.38 401.702 395.16 401.702L395.17 401.712ZM365.61 393.542C365.61 393.542 365.52 393.542 365.47 393.522C360.59 392.102 355.65 390.612 350.78 389.112C350.52 389.032 350.37 388.752 350.45 388.482C350.53 388.222 350.81 388.072 351.07 388.152C355.94 389.652 360.88 391.142 365.75 392.562C366.01 392.642 366.17 392.912 366.09 393.182C366.03 393.402 365.83 393.542 365.61 393.542ZM336.31 384.502C336.26 384.502 336.21 384.502 336.16 384.482C331.31 382.902 326.41 381.272 321.61 379.632C321.35 379.542 321.21 379.262 321.3 379.002C321.39 378.742 321.67 378.602 321.94 378.692C326.74 380.332 331.63 381.962 336.48 383.532C336.74 383.622 336.89 383.902 336.8 384.162C336.73 384.372 336.54 384.512 336.32 384.512L336.31 384.502ZM307.29 374.582C307.23 374.582 307.18 374.582 307.12 374.552C302.33 372.832 297.49 371.052 292.72 369.262C292.46 369.162 292.33 368.872 292.43 368.622C292.53 368.362 292.81 368.232 293.07 368.332C297.83 370.122 302.67 371.902 307.45 373.622C307.71 373.712 307.84 374.002 307.75 374.262C307.68 374.462 307.48 374.592 307.28 374.592L307.29 374.582ZM278.59 363.782C278.53 363.782 278.47 363.772 278.41 363.752C273.68 361.882 268.9 359.952 264.19 358.012C263.93 357.912 263.81 357.612 263.92 357.362C264.03 357.102 264.32 356.982 264.57 357.092C269.28 359.032 274.06 360.972 278.78 362.832C279.04 362.932 279.16 363.222 279.06 363.482C278.98 363.682 278.79 363.802 278.59 363.802V363.782ZM250.25 352.072C250.18 352.072 250.12 352.062 250.05 352.032C245.35 350.002 240.63 347.912 236.02 345.832C235.77 345.722 235.66 345.422 235.77 345.172C235.88 344.922 236.18 344.812 236.43 344.922C241.04 347.002 245.75 349.092 250.44 351.122C250.69 351.232 250.81 351.522 250.7 351.782C250.62 351.972 250.43 352.082 250.24 352.082L250.25 352.072ZM222.31 339.442C222.24 339.442 222.17 339.422 222.1 339.392C217.5 337.222 212.85 334.972 208.29 332.722C208.04 332.602 207.94 332.302 208.06 332.052C208.18 331.802 208.48 331.702 208.73 331.822C213.29 334.072 217.93 336.312 222.53 338.482C222.78 338.602 222.89 338.902 222.77 339.152C222.68 339.332 222.5 339.442 222.32 339.442H222.31ZM194.82 325.872C194.74 325.872 194.66 325.852 194.59 325.812C190.04 323.462 185.48 321.062 181.02 318.662C180.78 318.532 180.69 318.232 180.82 317.982C180.95 317.742 181.26 317.652 181.5 317.782C185.95 320.182 190.51 322.582 195.05 324.922C195.3 325.052 195.39 325.352 195.27 325.592C195.18 325.762 195.01 325.862 194.83 325.862L194.82 325.872ZM167.83 311.342C167.75 311.342 167.66 311.322 167.59 311.282C163.14 308.782 158.67 306.212 154.29 303.652C154.05 303.512 153.97 303.202 154.11 302.972C154.25 302.732 154.55 302.652 154.79 302.792C159.17 305.362 163.64 307.922 168.08 310.412C168.32 310.552 168.41 310.852 168.27 311.092C168.18 311.252 168.01 311.352 167.83 311.352V311.342ZM141.38 295.842C141.29 295.842 141.2 295.822 141.12 295.772C136.76 293.102 132.38 290.372 128.11 287.642C127.88 287.492 127.81 287.182 127.96 286.952C128.11 286.722 128.42 286.652 128.65 286.802C132.92 289.522 137.29 292.252 141.64 294.922C141.88 295.062 141.95 295.372 141.81 295.612C141.72 295.762 141.55 295.852 141.38 295.852V295.842ZM115.54 279.352C115.44 279.352 115.35 279.322 115.26 279.272C111.02 276.452 106.75 273.552 102.57 270.652C102.34 270.492 102.29 270.182 102.44 269.952C102.6 269.722 102.91 269.672 103.14 269.822C107.31 272.722 111.57 275.612 115.81 278.432C116.04 278.582 116.1 278.892 115.95 279.122C115.85 279.272 115.7 279.342 115.53 279.342L115.54 279.352Z" fill="#06B4FF"/>
<path d="M90.4901 261.942C90.3901 261.942 90.2901 261.912 90.2001 261.842C88.1801 260.382 86.1601 258.902 84.1401 257.412C83.9201 257.252 83.8701 256.932 84.0401 256.712C84.2001 256.492 84.5201 256.442 84.7401 256.612C86.7501 258.102 88.7701 259.572 90.7901 261.032C91.0101 261.192 91.0601 261.502 90.9001 261.732C90.8001 261.872 90.6501 261.942 90.4901 261.942Z" fill="#06B4FF"/>
<path d="M278.69 499.802C278.47 499.802 278.27 499.652 278.21 499.432C278.14 499.162 278.3 498.892 278.56 498.822C283.1 497.592 285.87 497.092 285.89 497.082C286.16 497.042 286.42 497.212 286.47 497.482C286.52 497.752 286.34 498.012 286.07 498.062C286.04 498.062 283.31 498.572 278.82 499.782C278.78 499.792 278.73 499.802 278.69 499.802Z" fill="#06B4FF"/>
<path d="M111.69 602.852C111.51 602.852 111.34 602.752 111.25 602.592C111.12 602.352 111.21 602.042 111.45 601.912C115.18 599.912 119.28 597.562 123.64 594.912C123.88 594.772 124.18 594.842 124.33 595.082C124.47 595.322 124.4 595.622 124.16 595.772C119.79 598.432 115.67 600.792 111.93 602.802C111.85 602.842 111.77 602.862 111.69 602.862V602.852ZM135.81 588.322C135.65 588.322 135.49 588.242 135.39 588.092C135.24 587.862 135.3 587.552 135.54 587.402C139.19 585.022 143.13 582.392 147.24 579.582C147.47 579.432 147.78 579.482 147.93 579.712C148.09 579.942 148.03 580.252 147.8 580.402C143.68 583.212 139.74 585.842 136.08 588.232C136 588.282 135.9 588.312 135.81 588.312V588.322ZM159.09 572.482C158.93 572.482 158.78 572.412 158.68 572.272C158.52 572.042 158.58 571.732 158.8 571.572C162.61 568.902 166.44 566.172 170.28 563.432C170.5 563.272 170.82 563.322 170.98 563.552C171.14 563.782 171.09 564.092 170.86 564.252C167.02 567.002 163.18 569.722 159.37 572.392C159.28 572.452 159.18 572.482 159.08 572.482H159.09ZM182.02 556.122C181.86 556.122 181.71 556.052 181.61 555.912C181.45 555.692 181.5 555.372 181.72 555.212L193.13 546.972C193.35 546.812 193.67 546.862 193.83 547.082C193.99 547.302 193.94 547.622 193.72 547.782L182.31 556.022C182.22 556.082 182.12 556.112 182.02 556.112V556.122ZM204.87 539.662C204.71 539.662 204.56 539.592 204.46 539.452C204.3 539.232 204.35 538.912 204.58 538.752C208.49 535.952 212.33 533.222 216.07 530.602C216.3 530.442 216.61 530.502 216.77 530.722C216.93 530.952 216.87 531.262 216.65 531.422C212.91 534.042 209.08 536.762 205.17 539.562C205.08 539.622 204.98 539.652 204.88 539.652L204.87 539.662ZM227.95 523.532C227.79 523.532 227.63 523.452 227.53 523.312C227.38 523.082 227.44 522.772 227.66 522.622C229.35 521.482 231 520.382 232.62 519.312C234.86 517.842 237.19 516.402 239.55 515.032C239.79 514.892 240.1 514.972 240.23 515.212C240.37 515.452 240.29 515.752 240.05 515.892C237.7 517.252 235.39 518.682 233.17 520.142C231.55 521.202 229.9 522.312 228.22 523.442C228.13 523.502 228.04 523.532 227.94 523.532H227.95ZM252.29 509.472C252.1 509.472 251.92 509.362 251.84 509.182C251.72 508.932 251.84 508.632 252.08 508.522C256.3 506.562 260.68 504.742 265.11 503.112C265.37 503.022 265.66 503.152 265.75 503.412C265.85 503.672 265.71 503.962 265.45 504.052C261.04 505.672 256.69 507.472 252.49 509.422C252.42 509.452 252.35 509.472 252.28 509.472H252.29Z" fill="#06B4FF"/>
<path d="M92.0101 611.362C91.7901 611.362 91.5901 611.222 91.5301 610.992C91.4601 610.722 91.6101 610.452 91.8801 610.372C94.0001 609.782 96.3601 608.952 98.9001 607.922C99.1601 607.822 99.4501 607.942 99.5501 608.192C99.6501 608.452 99.5301 608.742 99.2801 608.842C96.7101 609.892 94.3101 610.722 92.1501 611.332C92.1101 611.342 92.0601 611.352 92.0201 611.352L92.0101 611.362Z" fill="#06B4FF"/>
<path d="M306.33 561.152C306.2 561.152 306.08 561.102 305.98 561.012C305.78 560.822 305.78 560.502 305.98 560.302C309.23 556.982 311.44 555.132 311.46 555.112C311.67 554.932 311.99 554.962 312.16 555.172C312.34 555.382 312.31 555.702 312.1 555.872C312.08 555.892 309.9 557.712 306.69 560.992C306.59 561.092 306.46 561.142 306.33 561.142V561.152Z" fill="#06B4FF"/>
<path d="M277.51 615.182C277.51 615.182 277.47 615.182 277.44 615.182C277.17 615.142 276.97 614.892 277.01 614.622C277.69 609.602 278.94 604.492 280.73 599.432C280.82 599.172 281.11 599.032 281.37 599.132C281.63 599.222 281.77 599.512 281.67 599.772C279.9 604.772 278.67 609.812 278 614.762C277.97 615.012 277.75 615.192 277.5 615.192L277.51 615.182ZM287.64 585.942C287.56 585.942 287.47 585.922 287.4 585.882C287.16 585.752 287.07 585.442 287.21 585.202C289.67 580.792 292.55 576.392 295.78 572.132C295.95 571.912 296.26 571.872 296.48 572.032C296.7 572.202 296.74 572.512 296.58 572.732C293.38 576.952 290.53 581.312 288.09 585.682C288 585.842 287.83 585.942 287.65 585.942H287.64Z" fill="#06B4FF"/>
<path d="M278.4 638.122C278.17 638.122 277.96 637.962 277.91 637.732C277.37 635.272 276.97 632.752 276.73 630.272C276.7 630.002 276.9 629.752 277.18 629.722C277.46 629.692 277.7 629.892 277.73 630.172C277.98 632.622 278.37 635.092 278.9 637.522C278.96 637.792 278.79 638.062 278.52 638.112C278.48 638.112 278.45 638.122 278.41 638.122H278.4Z" fill="#06B4FF"/>
<path opacity="0.2" d="M294.4 838.712C456.993 838.712 588.8 831.016 588.8 821.522C588.8 812.028 456.993 804.332 294.4 804.332C131.807 804.332 0 812.028 0 821.522C0 831.016 131.807 838.712 294.4 838.712Z" fill="#666666"/>
<path fill-rule="evenodd" clip-rule="evenodd" d="M418.8 77.9622C422.14 86.2422 424.91 100.422 433.16 108.552C437.82 113.162 441.06 114.432 443.71 114.512C445.55 114.562 444.43 119.472 440.1 119.802C439.2 132.912 423.35 133.062 415.34 128.332C406.47 135.912 390.93 98.5122 397.69 78.3222C401.93 65.6322 414.07 66.2522 418.81 77.9722L418.8 77.9622Z" fill="#E5E5E5"/>
<path fill-rule="evenodd" clip-rule="evenodd" d="M403.72 79.5321C404.77 79.6021 405.51 81.0521 405.42 82.7721C405.33 84.4921 404.37 85.8421 403.33 85.7621C402.28 85.6921 401.54 84.2421 401.63 82.5221C401.72 80.8021 402.68 79.4821 403.72 79.5321Z" fill="#B2B2B2"/>
<path fill-rule="evenodd" clip-rule="evenodd" d="M403.25 78.682C404.3 78.752 405.04 80.202 404.95 81.922C404.86 83.642 403.9 84.992 402.86 84.912C401.81 84.842 401.07 83.392 401.16 81.672C401.26 79.972 402.21 78.632 403.25 78.682Z" fill="black"/>
<path fill-rule="evenodd" clip-rule="evenodd" d="M411.97 79.2321C413.02 79.2121 413.91 80.5822 413.96 82.3022C414.01 84.0222 413.19 85.4422 412.14 85.4722C411.09 85.4922 410.2 84.1221 410.15 82.4021C410.1 80.6821 410.92 79.2621 411.97 79.2321Z" fill="#B2B2B2"/>
<path fill-rule="evenodd" clip-rule="evenodd" d="M411.4 78.4323C412.45 78.4123 413.34 79.7824 413.39 81.5024C413.44 83.2224 412.62 84.6424 411.57 84.6724C410.52 84.6924 409.63 83.3224 409.58 81.6024C409.56 79.8824 410.35 78.4623 411.4 78.4323Z" fill="black"/>
<path fill-rule="evenodd" clip-rule="evenodd" d="M444.41 114.962C445.01 116.212 443.61 119.522 440.1 119.772C439.55 127.672 432.87 131.712 426.46 131.992C422.22 132.162 418.16 131.042 415.34 128.302C413.59 129.802 411.6 129.522 409.56 128.032C412.13 129.102 414.05 128.082 413.35 127.012C410.18 122.122 407.97 117.592 407.07 108.242C408.44 114.752 410.46 120.232 413 123.552C416.56 128.212 422.62 130.432 427.36 129.762C434.91 128.662 440.4 124.182 431.22 117.252C427.75 114.632 424.04 111.092 420.15 105.082C426.43 113.912 443.26 124.602 444.41 114.982V114.962Z" fill="#B2B2B2"/>
<path d="M467.27 95.6123C465.97 83.0723 459.84 71.7823 450.04 63.8223C440.24 55.8723 427.93 52.2023 415.39 53.5223C402.85 54.8223 391.56 60.9523 383.6 70.7523C375.65 80.5523 371.98 92.8623 373.3 105.402C374.62 117.942 380.73 129.232 390.53 137.192C399.03 144.102 409.4 147.762 420.2 147.762C421.85 147.762 423.52 147.692 425.19 147.512C437.73 146.212 449.02 140.082 456.98 130.282C464.93 120.462 468.6 108.142 467.28 95.6023L467.27 95.6123ZM388.87 74.9923C395.68 66.5923 405.35 61.3523 416.12 60.2323C417.54 60.0823 418.96 60.0123 420.38 60.0123C428.51 60.0123 436.36 62.4323 443.09 67.0423L392.26 129.692C377.23 115.282 375.53 91.4223 388.87 74.9923ZM451.74 126.002C438.4 142.452 414.72 145.672 397.52 133.952L448.35 71.3023C455.26 77.9123 459.57 86.6823 460.57 96.3023C461.69 107.042 458.55 117.592 451.74 125.992V126.002Z" fill="#06B4FF"/>
<path d="M188.19 14.7821C175.01 10.5121 168.16 9.59211 166.04 9.41211C166.45 10.2921 172.18 14.7121 177.66 17.9221C181.13 17.8021 187.55 17.9021 187.59 18.7221C187.63 19.5021 182.97 19.2021 180.43 19.4121C180.75 19.5721 181.85 20.1421 182.19 20.2721C188.52 23.0021 196.58 26.1521 205.43 31.2121C205.91 31.4721 206.36 31.7221 206.82 31.9421L211.94 30.4121C212.31 30.3021 213.1 31.4521 212.78 31.8921L211.47 33.6021C217.06 34.9021 220.98 33.3421 221.25 33.2121C220.27 32.3721 207.51 21.4221 188.19 14.7721V14.7821Z" fill="#0092FF"/>
<path d="M190.6 11.1722C189.02 9.92216 186.22 7.75216 184.92 6.87216C176.01 5.47216 168.5 8.24216 166.05 9.38216L166.08 9.42216C168.16 9.60216 175.05 10.5222 188.23 14.7922C207.55 21.4422 220.31 32.4022 221.29 33.2322C221.49 32.2822 221.7 27.9122 218.38 23.6222C217.23 22.1222 214.48 20.0422 211.52 18.2022L211.15 21.2322C211.07 21.7122 210.37 21.8722 210.19 21.2822L208.83 16.6522C203.65 13.7722 197.18 10.8122 191.03 8.46216C190.77 8.35216 190.18 8.10216 189.91 7.99216C190.31 8.55216 190.78 9.51216 191.32 10.4822C191.58 11.0222 191.23 11.6622 190.61 11.1722H190.6Z" fill="#0AB3FF"/>
<path d="M229.78 40.4721C228.4 40.5221 227.36 40.2021 226.31 39.5321C225.59 39.0221 224.62 38.0821 223.94 37.5121C220 34.1721 215.75 30.9921 211.49 28.0821C205.42 24.0321 199.01 20.3021 192.4 17.1421C190.52 16.1921 188.55 15.3621 186.66 14.4421L186.75 14.1421C188.8 14.7021 190.86 15.2221 192.89 15.9221C204.09 19.6121 214.55 25.4321 223.76 32.7621C224.94 33.7021 226.32 34.8821 227.45 35.8821C228.91 37.0121 229.93 38.4821 229.77 40.4621L229.78 40.4721Z" fill="#323130"/>
<path d="M196.79 401.693C195.17 400.743 193.6 399.713 192.12 398.533C193.01 395.653 195.97 368.143 195.97 368.143L214.73 390.563C214.73 390.563 219.77 415.683 220.09 416.173C208.89 417.623 202.25 404.083 196.79 401.683V401.693Z" fill="#EA877B"/>
<path d="M230.08 347.883C230.7 356.243 231.06 380.413 229.33 387.903C228.33 392.223 222.47 399.353 219.52 399.403C209.09 399.583 197.44 391.073 195.67 388.693C193.9 386.313 192.47 377.863 191.54 373.843C190.61 369.823 186.08 356.673 191.16 350.813C196.24 344.953 205.62 344.413 215.25 345.663C224.87 346.913 229.83 344.483 230.08 347.883Z" fill="#FFBE95"/>
<path d="M196.46 361.952C196.46 361.952 198.77 359.562 199.71 356.152L198.62 350.742C198.62 350.742 208.03 352.182 219.56 351.392C228.36 350.782 230.3 349.332 230.3 349.332C230.3 349.332 239.12 345.792 231.19 337.832C225.68 332.292 204.53 333.642 200.26 334.782C190.39 337.402 190.8 340.842 190.8 340.842C190.8 340.842 185.6 341.842 183.13 347.512C180.57 353.402 181.83 358.062 184.08 364.872C187.12 374.092 195.32 380.102 195.32 380.102L196.46 361.952Z" fill="black"/>
<path d="M214.28 362.322C214.28 362.322 214.28 360.652 213.11 359.592C213.11 359.592 206.81 358.882 201.17 363.812C201.17 363.812 202.29 363.852 202.73 363.792C203.85 363.632 210.19 361.292 214.28 362.332V362.322Z" fill="black"/>
<path d="M222.04 361.732C222.04 361.732 221.79 360.292 222.7 359.062C222.7 359.062 226.1 357.902 231.78 361.362C231.78 361.362 231.49 362.142 230.39 361.882C229.28 361.622 224.93 359.842 222.05 361.722L222.04 361.732Z" fill="black"/>
<path d="M209.46 367.893C209.49 369.283 210.18 370.383 210.99 370.373C211.81 370.353 212.44 369.213 212.41 367.833C212.38 366.443 211.69 365.343 210.88 365.353C210.07 365.363 209.43 366.513 209.46 367.893Z" fill="black"/>
<path d="M224.66 367.563C224.69 368.953 225.38 370.053 226.19 370.043C227.01 370.023 227.64 368.883 227.61 367.503C227.58 366.113 226.89 365.013 226.08 365.023C225.26 365.043 224.63 366.183 224.66 367.563Z" fill="black"/>
<path d="M192.75 369.382C189.42 366.212 184.2 367.132 184.92 371.912C185.52 375.892 187.6 376.562 190.99 379.692C193.28 381.812 195.21 380.622 195.29 379.502C195.5 376.332 194.82 371.352 192.76 369.382H192.75Z" fill="#FFBE95"/>
<path d="M220.09 366.322C220.71 367.662 221.25 369.022 221.77 370.392C222.3 371.762 222.77 373.152 223.23 374.542L223.56 375.592L223.73 376.112C223.77 376.322 223.81 376.542 223.84 376.762C223.82 376.982 223.81 377.222 223.74 377.432C223.64 377.632 223.58 377.862 223.42 378.012C223.16 378.352 222.81 378.572 222.47 378.712C221.08 379.272 220.37 379.332 218.96 379.132C218.96 379.132 221.6 378.402 222.14 378.082C222.68 377.752 223.06 377.312 223 376.762C222.96 376.622 222.94 376.482 222.92 376.332L222.75 375.812L222.4 374.772C221.96 373.382 221.52 371.992 221.14 370.582C220.75 369.172 220.38 367.763 220.1 366.312L220.09 366.322Z" fill="#EA877B"/>
<path d="M189.92 369.493C188.28 368.393 187.05 369.703 186.79 371.183C186.53 372.663 186.98 371.803 188.01 370.883C189.04 369.963 190.53 372.073 190.59 373.493C190.68 375.453 191.7 377.823 193.42 377.813C195.14 377.813 194.17 377.293 193.66 375.253C193.15 373.213 193.75 375.233 192.96 373.253C192.17 371.283 191.33 370.443 189.92 369.493Z" fill="#EA877B"/>
<path d="M224.02 384.652L215.02 384.672C215.02 384.672 215.83 386.722 219.56 386.812C222.87 386.892 224.02 384.652 224.02 384.652Z" fill="#FAEDE5"/>
<path d="M226.57 790.962C226.57 790.962 226.2 802.902 225.61 807.172C225.41 808.592 224.49 811.342 224.32 812.762C224.09 814.662 223.59 820.072 224.94 821.422L248.81 821.202L282.83 821.422C282.83 821.422 286.26 817.752 279.15 813.952C271.91 810.082 253.92 801.512 253.92 801.512L249.52 788.302L226.56 790.962H226.57Z" fill="#2A2A2A"/>
<path d="M283.66 821.432C283.66 821.432 284.77 819.222 283.66 817.222H224.04C224.04 817.222 223.34 819.832 224.95 821.432H283.67H283.66Z" fill="white"/>
<path d="M175.18 791.283C175.18 791.283 174.82 802.953 174.24 807.123C174.05 808.513 173.15 811.193 172.98 812.583C172.76 814.443 172.27 819.723 173.59 821.053L196.91 820.833L216.69 821.053C216.69 821.053 220.04 817.463 213.09 813.753C206.01 809.973 201.9 801.593 201.9 801.593L197.6 788.683L175.16 791.283H175.18Z" fill="#2A2A2A"/>
<path d="M217.51 821.052C217.51 821.052 218.59 818.892 217.51 816.942H172.71C172.71 816.942 172.03 819.492 173.6 821.052H217.51Z" fill="white"/>
<path d="M175.63 562.643L168.85 581.503L178.87 681.923C178.87 681.923 177.98 694.663 176.06 717.203C174.39 736.773 173.8 795.943 173.8 795.943H201.47L217.01 687.463L221.11 613.473L243.41 566.683L175.63 562.643Z" fill="#333333"/>
<path d="M244.14 566.573L206.63 577.873L219.67 691.483L223.5 792.983H253.01L256.47 691.463L244.14 566.573Z" fill="#333333"/>
<path d="M201.54 795.323C201.54 795.323 201.54 795.153 201.56 794.823C201.6 794.443 201.65 793.963 201.71 793.353C201.87 792.003 202.1 790.113 202.39 787.713C203.03 782.753 203.94 775.693 205.06 766.993C207.39 749.503 210.56 725.353 214.5 698.713C214.85 696.443 215.23 694.123 215.66 691.913C216.05 689.713 216.33 687.463 216.63 685.263C217.18 680.843 217.72 676.523 218.25 672.323C219.24 663.913 220.18 655.973 221.04 648.673C222.73 634.133 224.12 622.163 225.06 614.083V614.063V614.043C226.32 610.353 227.29 607.493 227.98 605.493C228.31 604.573 228.57 603.843 228.76 603.303C228.94 602.813 229.04 602.563 229.06 602.573C229.08 602.583 229.01 602.833 228.87 603.343C228.7 603.893 228.48 604.633 228.19 605.573C227.55 607.593 226.64 610.473 225.46 614.193V614.153C224.66 622.173 223.4 634.183 221.78 648.783C220.95 656.083 220.04 664.033 219.08 672.453C218.56 676.663 218.03 680.983 217.48 685.413C217.19 687.623 216.91 689.843 216.51 692.123C216.07 694.373 215.71 696.583 215.36 698.883C211.42 725.493 208.15 749.653 205.66 767.113C204.42 775.793 203.41 782.843 202.71 787.793C202.35 790.183 202.07 792.063 201.87 793.413C201.77 794.013 201.69 794.493 201.63 794.873C201.57 795.203 201.53 795.363 201.52 795.363L201.54 795.323Z" fill="#2A2A2A"/>
<path d="M236.42 440.122L228.67 423.912L227.71 413.902C227.71 413.902 212.85 404.982 205.8 401.612C198.75 398.242 189.25 395.192 189.25 395.192V404.642L236.42 440.132V440.122Z" fill="#ECECEC"/>
<path d="M171.65 522.932C171.65 522.932 167.44 468.892 167.16 464.872C167.16 464.872 164.67 435.992 170.04 425.002C175.41 414.002 187.41 404.342 187.41 404.342L188.52 398.572L211.97 412.692L222.81 421.702C222.81 421.702 228.96 427.912 233.04 433.862C236.12 437.932 239.54 443.162 241.06 449.742C241.62 452.152 248.07 480.912 248.26 500.972C248.26 500.972 249.25 518.462 250.31 528.372C251.62 540.642 251.05 573.112 250.62 589.682L177.18 582.952C158.4 580.212 161.7 578.432 161.7 578.432L171.65 522.932Z" fill="#06B4FF"/>
<path d="M189.26 404.643C189.26 404.643 189.44 404.733 189.79 404.873C190.16 405.023 190.68 405.223 191.34 405.493C192 405.793 192.81 406.203 193.75 406.673C194.66 407.213 195.74 407.763 196.86 408.533C201.42 411.453 207.44 416.413 213.56 423.283L213.6 423.333H213.66C215.97 423.753 218.42 424.183 220.95 424.623L220.79 424.453C220.9 427.693 221.02 431.083 221.15 434.603V434.683L221.22 434.743C224.87 438.043 228.58 441.783 231.94 445.973C233.3 447.693 234.56 449.453 235.62 451.283L236.02 451.963L236.32 452.673C236.53 453.143 236.72 453.623 236.87 454.123C237.2 455.103 237.52 456.083 237.78 457.073C238.91 460.993 239.83 464.823 240.7 468.473C242.43 475.773 243.87 482.373 245.07 487.923C247.46 499.023 248.8 505.903 248.8 505.903C248.8 505.903 248.78 505.463 248.64 504.643C248.51 503.823 248.29 502.603 248 501.043C247.41 497.923 246.52 493.423 245.37 487.863C244.21 482.303 242.8 475.703 241.09 468.383C240.23 464.733 239.31 460.893 238.19 456.953C237.93 455.963 237.6 454.983 237.28 453.983C237.13 453.483 236.93 452.993 236.72 452.503L236.4 451.763L236 451.073C234.93 449.213 233.66 447.443 232.29 445.713C228.91 441.503 225.19 437.763 221.51 434.443L221.58 434.583C221.45 431.063 221.32 427.673 221.2 424.433V424.283L221.04 424.253C218.51 423.813 216.06 423.393 213.74 422.993L213.85 423.053C207.67 416.173 201.61 411.243 196.99 408.353C195.86 407.603 194.76 407.053 193.84 406.533C192.88 406.073 192.06 405.683 191.39 405.393C190.72 405.143 190.19 404.953 189.81 404.823C189.45 404.693 189.26 404.643 189.26 404.643Z" fill="#0092FF"/>
<path d="M189.26 418.822C189.39 418.862 190.13 416.053 192.11 413.083C194.06 410.093 196.39 408.232 196.29 408.132C196.26 408.092 195.64 408.512 194.75 409.322C193.87 410.132 192.75 411.353 191.75 412.873C190.76 414.383 190.09 415.883 189.71 416.993C189.33 418.103 189.21 418.823 189.26 418.833V418.822Z" fill="#0092FF"/>
<path d="M242.72 508.413C242.72 508.413 242.62 508.593 242.65 508.933C242.68 509.273 242.83 509.793 243.31 510.243C243.75 510.693 244.64 511.023 245.5 510.713C245.92 510.573 246.32 510.313 246.62 509.943C246.92 509.573 247.09 509.073 247.07 508.593C247.07 507.973 246.86 507.383 246.49 506.913C246.3 506.683 246.06 506.493 245.78 506.383C245.49 506.283 245.28 506.233 245.04 506.163H245.01H244.98C244.43 506.173 243.9 506.293 243.52 506.563C243.13 506.833 242.94 507.193 242.84 507.483C242.65 508.073 242.69 508.423 242.72 508.423C242.77 508.423 242.81 508.083 243.04 507.553C243.16 507.293 243.35 507.003 243.69 506.793C244.02 506.583 244.48 506.503 244.98 506.503H244.92C245.14 506.573 245.42 506.653 245.62 506.723C245.82 506.813 246.01 506.963 246.16 507.153C246.46 507.533 246.64 508.063 246.64 508.593C246.68 509.443 246.06 510.123 245.35 510.363C244.64 510.633 243.92 510.403 243.5 510.033C243.06 509.663 242.87 509.213 242.8 508.913C242.73 508.603 242.75 508.413 242.71 508.413H242.72Z" fill="#1A2E35"/>
<path d="M243.85 533.913C243.85 533.913 243.75 534.093 243.78 534.433C243.81 534.773 243.96 535.293 244.44 535.743C244.88 536.193 245.77 536.523 246.63 536.213C247.05 536.073 247.45 535.813 247.75 535.443C248.05 535.073 248.22 534.573 248.2 534.093C248.2 533.473 247.99 532.883 247.62 532.413C247.43 532.183 247.19 531.993 246.91 531.883C246.62 531.783 246.41 531.733 246.17 531.663H246.14H246.11C245.56 531.673 245.03 531.793 244.65 532.063C244.26 532.333 244.07 532.693 243.97 532.983C243.78 533.573 243.82 533.923 243.85 533.923C243.9 533.923 243.94 533.583 244.17 533.053C244.29 532.793 244.48 532.503 244.82 532.293C245.15 532.083 245.61 532.003 246.11 532.003H246.05C246.27 532.073 246.55 532.153 246.75 532.223C246.95 532.313 247.14 532.463 247.29 532.653C247.59 533.033 247.77 533.563 247.77 534.093C247.81 534.943 247.19 535.623 246.48 535.863C245.77 536.133 245.05 535.903 244.63 535.533C244.19 535.163 244 534.713 243.93 534.413C243.86 534.103 243.88 533.913 243.84 533.913H243.85Z" fill="#0092FF"/>
<path d="M190.41 399.402C190.41 399.402 190.54 399.512 190.81 399.692C191.12 399.892 191.52 400.152 192.01 400.472C193.11 401.162 194.62 402.112 196.46 403.272C200.28 405.622 205.49 408.832 211.23 412.372C213.46 413.732 215.6 415.032 217.61 416.252H217.6C218.3 416.762 218.98 417.262 219.64 417.752C220.32 418.222 220.9 418.712 221.46 419.232C222.58 420.262 223.57 421.262 224.46 422.172L224.62 422.332L224.71 422.132C225.68 420.002 226.46 418.262 227.04 417.002C227.29 416.422 227.49 415.962 227.65 415.592C227.79 415.272 227.85 415.092 227.84 415.092C227.83 415.092 227.73 415.252 227.57 415.562C227.39 415.912 227.17 416.372 226.88 416.932C226.28 418.182 225.45 419.902 224.43 422.012L224.68 421.972C223.8 421.042 222.82 420.032 221.7 418.982C221.16 418.462 220.52 417.922 219.86 417.452C219.21 416.962 218.53 416.452 217.84 415.942C215.84 414.712 213.7 413.402 211.47 412.042C205.69 408.542 200.47 405.372 196.63 403.042C194.75 401.932 193.22 401.012 192.11 400.352C191.6 400.062 191.19 399.822 190.87 399.642C190.58 399.482 190.43 399.402 190.42 399.412L190.41 399.402Z" fill="#06B4FF"/>
<path d="M293.81 514.452C293.81 514.452 296.34 513.832 298.23 514.742C300.12 515.652 306.22 522.112 306.22 522.112L312.31 522.422L311.79 539.702L286.79 543.692L293.81 514.452Z" fill="#EA877B"/>
<path d="M274.68 515.522C274.68 515.522 280.99 516.752 283.1 516.262C285.21 515.772 290.67 512.862 291.59 513.162C292.52 513.462 295.77 514.932 295.77 514.932L293.4 518.732C293.4 518.732 299.23 524.502 300.89 526.512C302.56 528.522 307.3 536.872 307.19 538.612C307.08 540.352 306.1 542.192 305.15 542.652C304.2 543.112 301.61 541.112 301.61 541.112C301.61 541.112 301.68 542.742 300.24 543.932C298.8 545.122 296.39 544.002 296.39 544.002C296.39 544.002 295.6 546.342 294.33 546.502C293.06 546.662 290.77 544.722 290.77 544.722C290.77 544.722 289.49 546.562 288.49 546.552C287.49 546.552 285.19 544.302 285.19 544.302C285.19 544.302 275.58 533.172 273.27 531.312C270.95 529.452 270.17 529.192 270.17 529.192L274.68 515.522Z" fill="#FFC19D"/>
<path d="M290.77 544.722C290.72 544.712 290.73 544.492 290.68 544.162C290.63 543.832 290.53 543.372 290.37 542.862C290.07 541.852 289.77 541.032 289.87 540.992C289.95 540.952 290.4 541.712 290.72 542.762C290.88 543.282 290.95 543.782 290.93 544.152C290.92 544.522 290.8 544.742 290.76 544.722H290.77Z" fill="#FF9C6A"/>
<path d="M295.93 544.473C295.82 544.503 295.51 543.323 294.99 541.933C294.49 540.533 293.83 539.523 293.91 539.463C293.98 539.393 294.81 540.363 295.33 541.803C295.86 543.233 296.02 544.453 295.93 544.473Z" fill="#FF9C6A"/>
<path d="M301.59 541.402C301.48 541.402 301.46 540.072 300.98 538.522C300.52 536.972 299.8 535.852 299.89 535.792C299.96 535.732 300.84 536.802 301.33 538.422C301.83 540.032 301.68 541.412 301.59 541.402Z" fill="#FF9C6A"/>
<path d="M300.37 531.532C300.47 531.532 300.51 532.462 300.29 533.572C300.08 534.682 299.69 535.522 299.6 535.492C299.5 535.462 299.73 534.582 299.93 533.502C300.14 532.422 300.26 531.532 300.36 531.532H300.37Z" fill="#FF9C6A"/>
<path d="M285.04 520.942C285.04 520.942 288.25 515.572 289.07 515.002C289.9 514.432 296.35 514.292 296.35 514.292L297.06 519.602L295.37 520.702L292.51 519.812C292.51 519.812 289.55 524.162 285.03 520.932L285.04 520.942Z" fill="#EA877B"/>
<path d="M271.16 529.752C271.16 529.752 270.18 530.192 270.64 531.912C271.1 533.632 273.61 533.082 274.44 532.822C274.44 532.822 272.74 535.102 273.93 536.232C275.12 537.362 276.84 537.542 276.84 537.542C276.84 537.542 276.4 539.052 278.12 540.532C279.84 542.022 280.59 541.122 280.59 541.122C280.59 541.122 280.2 543.712 282.4 544.472C284.6 545.232 285.57 544.642 285.57 544.642L284.92 542.902C284.92 542.902 286.86 540.552 286.13 539.152C285.39 537.752 283.69 537.492 283.69 537.492C283.69 537.492 284.7 535.242 283.56 534.272C281.45 532.472 279.88 534.502 279.88 534.502C279.88 534.502 280.35 531.882 278.45 531.492C276.55 531.102 275.26 532.012 275.26 532.012L271.17 529.742L271.16 529.752Z" fill="#EA877B"/>
<path d="M279.87 534.512C279.94 534.572 279.38 535.372 278.54 536.242C277.7 537.112 276.93 537.702 276.86 537.632C276.79 537.562 277.45 536.852 278.28 535.992C279.11 535.132 279.79 534.452 279.87 534.512Z" fill="#7C4235"/>
<path d="M283.65 537.832C283.72 537.892 283.13 538.742 282.18 539.602C281.23 540.462 280.32 540.972 280.27 540.892C280.21 540.802 281.01 540.182 281.94 539.342C282.87 538.502 283.57 537.772 283.65 537.842V537.832Z" fill="#7C4235"/>
<path d="M171.73 447.312C171.92 447.972 194.77 512.402 206.27 515.432C217.77 518.462 246.44 529.502 253.58 530.432C260.72 531.362 267.56 533.062 267.56 533.062C267.56 533.062 276.22 523.092 275 511.772L265.65 509.032C265.65 509.032 241.47 496.902 238.15 494.722C234.84 492.542 229.4 488.992 226.39 486.372L208.67 430.112C208.67 430.112 196.1 416.852 186.31 420.062C176.52 423.272 168.43 436.022 171.73 447.312Z" fill="#06B4FF"/>
<path d="M260.62 529.172C261.15 528.212 261.73 527.042 262.3 525.712C262.86 524.372 263.4 522.882 263.86 521.272C264.76 518.052 265.13 515.032 265.23 512.842C265.28 511.752 265.3 510.862 265.28 510.242C265.28 509.632 265.28 509.282 265.31 509.282C265.34 509.282 265.37 509.622 265.42 510.232C265.48 510.842 265.5 511.742 265.48 512.842C265.45 515.052 265.12 518.112 264.21 521.362C263.75 522.982 263.19 524.492 262.61 525.832C262.02 527.172 261.41 528.342 260.85 529.292C260.48 529.922 259.44 531.292 259.44 531.292C259.44 531.292 260.09 530.122 260.62 529.162V529.172Z" fill="#0092FF"/>
<path d="M205.07 426.172C205.07 426.172 204.73 425.812 204.12 425.172C203.51 424.532 202.57 423.652 201.28 422.732C199.99 421.812 198.33 420.892 196.36 420.212C194.39 419.532 192.1 419.122 189.69 419.202C187.28 419.302 185.03 419.872 183.11 420.692C181.19 421.512 179.59 422.542 178.38 423.552C177.16 424.562 176.28 425.502 175.72 426.192C175.16 426.872 174.87 427.282 174.84 427.262C174.83 427.262 174.89 427.152 175.02 426.952C175.15 426.762 175.33 426.452 175.61 426.112C176.14 425.392 177 424.412 178.21 423.362C179.42 422.312 181.03 421.242 182.97 420.382C184.91 419.532 187.21 418.932 189.67 418.832C192.13 418.762 194.46 419.182 196.46 419.892C198.46 420.602 200.14 421.562 201.43 422.522C202.72 423.482 203.64 424.392 204.22 425.072C204.52 425.402 204.72 425.692 204.87 425.872C205.01 426.062 205.08 426.162 205.07 426.172Z" fill="#0092FF"/>
<path d="M226.31 486.412C226.4 486.452 225.7 488.222 224.74 490.372C223.78 492.512 222.92 494.222 222.83 494.182C222.74 494.142 223.44 492.372 224.4 490.222C225.36 488.082 226.22 486.372 226.31 486.412Z" fill="#0092FF"/>
<path d="M310.61 521.403C311.75 521.083 352.81 517.883 352.81 517.883L363.91 506.913L363.47 542.853L311.79 540.563L310.61 521.403Z" fill="#CAEDFD"/>
<path d="M208.67 430.112C214.86 448.462 220.97 467.812 226.66 486.302C231.03 489.262 237.27 494.032 242.51 497.222C244.36 498.332 246.2 499.512 248.26 500.192C246.17 499.592 244.27 498.492 242.38 497.442C236.74 494.102 231.14 490.472 225.96 486.522C220.08 468.102 214.06 448.712 208.67 430.112Z" fill="#0092FF"/>
<path d="M250.63 529.752C234.88 525.292 219.23 520.332 203.94 514.592C200.86 512.232 199.03 508.742 196.9 505.592C191.67 496.962 187.44 487.792 183.51 478.512C179.61 469.232 176.1 459.802 172.8 450.292C176.4 459.682 180.12 469.032 184.12 478.252C188.15 487.442 192.39 496.592 197.63 505.132C199.65 508.152 201.51 511.672 204.38 513.912C207.62 515.752 211.57 515.992 214.96 517.632C225.84 522.082 239.4 525.992 250.63 529.742V529.752Z" fill="#0092FF"/>
<path d="M388.93 746.852C392.99 757.892 394.05 784.032 393.92 792.902C393.79 801.272 390.72 803.842 387.35 807.412C383.98 810.982 379.02 813.962 380.21 815.942C381.4 817.922 387.55 816.932 393.9 814.152C400.25 811.372 408.36 807.342 410.17 805.222C411.32 803.872 412.7 803.592 411.48 799.922C411.07 798.702 409.34 796.672 408.94 795.232C407.35 789.482 408.29 768.812 409.07 759.622C409.85 750.422 410.85 732.662 405.85 720.272L383.84 721.462C383.84 721.462 386.5 740.252 388.93 746.852Z" fill="#EA877B"/>
<path d="M383.81 810.482C385.19 813.202 389.92 813.892 393.38 813.092C396.84 812.302 404.68 807.412 407.56 804.352C410.44 801.282 411.48 799.922 411.48 799.922C411.48 799.922 413.9 802.422 412.06 806.282C410.22 810.142 409.99 811.962 409.99 814.342V821.492H407.34L405.96 811.952C405.96 811.952 402.73 814.562 400.89 817.062C399.05 819.562 396.51 821.832 392.13 821.832H376.68C373.22 821.832 375.47 818.502 377.95 816.152C380.83 813.432 383.83 810.472 383.83 810.472L383.81 810.482Z" fill="#2A2A2A"/>
<path d="M403.72 746.502C407.78 757.542 408.84 783.682 408.71 792.552C408.58 800.922 405.51 803.492 402.14 807.062C398.77 810.632 393.81 813.612 395 815.592C396.19 817.572 402.34 816.582 408.69 813.802C415.04 811.022 423.15 806.992 424.96 804.872C426.11 803.522 427.49 803.242 426.27 799.572C425.86 798.352 424.13 796.322 423.73 794.882C422.14 789.132 423.08 768.462 423.86 759.272C424.64 750.072 425.64 732.312 420.64 719.922L398.63 721.112C398.63 721.112 401.29 739.902 403.72 746.502Z" fill="#FFBE95"/>
<path d="M398.6 810.132C399.98 812.852 404.71 813.542 408.17 812.742C411.63 811.952 419.47 807.062 422.35 804.002C425.23 800.932 426.27 799.572 426.27 799.572C426.27 799.572 428.69 802.072 426.85 805.932C425.01 809.792 424.78 811.612 424.78 813.992V821.142H422.13L420.75 811.602C420.75 811.602 417.52 814.212 415.68 816.712C413.84 819.212 411.3 821.482 406.92 821.482H391.47C388.01 821.482 390.26 818.152 392.74 815.802C395.62 813.082 398.62 810.122 398.62 810.122L398.6 810.132Z" fill="#2A2A2A"/>
<path d="M424.35 382.742C432.281 382.742 438.71 376.313 438.71 368.382C438.71 360.452 432.281 354.022 424.35 354.022C416.419 354.022 409.99 360.452 409.99 368.382C409.99 376.313 416.419 382.742 424.35 382.742Z" fill="black"/>
<path d="M426.89 388.232C427.71 375.342 422.04 364.432 411.21 359.692C406.59 357.672 395.84 355.632 386.38 360.072C373.48 366.122 369.57 378.342 372.12 390.332C375.19 404.742 390.44 423.542 406.6 416.692C411.99 414.412 425.93 403.572 426.9 388.242L426.89 388.232Z" fill="black"/>
<path d="M425.69 441.742C420.62 442.892 415.48 443.512 410.35 444.312C397.88 446.252 381.71 442.072 387.3 434.002C387.98 433.022 389.12 426.002 388.85 420.402C388.66 416.532 387.85 412.512 387.2 409.822C392.6 409.322 397.96 408.292 403.37 407.772C405.48 407.572 407.59 407.392 409.7 407.242C410.7 415.162 412.59 426.252 416.17 429.242C424.09 435.882 426.69 441.522 425.69 441.742Z" fill="#FFBE95"/>
<path d="M388.57 427.582C397.37 426.352 405.1 422.852 411.15 416.182C410.53 413.072 410.04 409.902 409.7 407.232C407.59 407.392 405.48 407.562 403.37 407.772C397.96 408.292 392.6 409.322 387.2 409.822C387.85 412.502 388.48 416.482 388.66 420.352C388.81 423.502 388.75 425.712 388.57 427.582Z" fill="#EA877B"/>
<path d="M382.62 366.712C376.74 373.192 375.95 381.032 374.8 388.772C374.52 390.662 374.72 392.372 374.6 394.272C374.29 399.262 374.52 402.442 376.17 409.522C377.52 415.282 382.87 423.012 388.85 423.122C392.36 423.182 402.21 420.462 407.84 413.822C409.2 412.222 409.8 408.652 410.47 406.952C412.64 401.422 413.95 394.862 413.82 383.872C413.7 372.872 410.73 367.202 403.15 364.362C395.57 361.522 382.6 366.712 382.6 366.712H382.62Z" fill="#FFBE95"/>
<path d="M408.55 391.472C395.96 385.482 383.91 373.422 385.07 364.492C385.07 364.492 401.97 356.722 412.07 365.572C432.97 383.872 421.58 393.142 418.26 404.002C415.42 394.802 421.78 397.772 408.55 391.482V391.472Z" fill="black"/>
<path d="M393.47 371.472C388.45 371.072 378.03 374.512 375.43 384.012C375.43 384.012 373.65 374.002 380.41 366.882C383.66 363.462 391.03 360.912 395.85 362.652C403.66 365.482 393.47 371.462 393.47 371.462V371.472Z" fill="black"/>
<path d="M422.3 389.612L406.02 390.232C406.02 390.232 406.01 406.112 409.93 408.402C409.93 408.402 421.46 405.752 422.3 389.612Z" fill="black"/>
<path d="M410.07 394.443C413.18 390.503 418.26 391.363 417.77 397.103C417.36 401.933 415.35 402.853 412.17 406.833C409.99 409.553 408.06 408.193 407.95 406.823C407.64 402.963 408.14 396.913 410.08 394.443H410.07Z" fill="#FFBE95"/>
<path d="M413.11 395.463C414.49 394.243 415.61 395.573 415.9 397.133C416.19 398.693 415.76 397.803 414.82 396.863C413.88 395.923 412.67 398.213 412.67 399.723C412.67 401.813 411.87 404.383 410.36 404.453C408.85 404.513 409.68 403.923 410.05 401.723C410.42 399.523 409.97 401.703 410.59 399.573C411.21 397.443 411.91 396.533 413.1 395.483L413.11 395.463Z" fill="#EA877B"/>
<path d="M390.67 386.882C391.08 386.372 391.74 386.192 392.15 386.112C394.28 385.712 396.08 386.162 397.79 386.262C399.5 386.362 401.16 388.052 401.86 389.322C401.86 389.322 400.02 387.842 397.94 387.792C396.26 387.752 395.02 387.692 391.27 388.012C390.93 388.042 390.33 387.312 390.68 386.872L390.67 386.882Z" fill="black"/>
<path d="M383.44 386.552C383.15 386.032 382.41 385.752 382.12 385.652C380.5 385.052 379.11 385.312 377.8 385.242C376.49 385.172 375.18 386.682 374.61 387.872C374.61 387.872 376.06 386.582 377.65 386.742C378.92 386.872 379.86 386.932 382.63 387.592C382.92 387.662 383.73 387.072 383.44 386.552Z" fill="black"/>
<path d="M386.43 393.352C386.33 394.712 385.94 396.062 385.29 397.312C384.66 398.562 383.78 399.722 382.95 400.852C382.54 401.422 382.13 401.992 381.89 402.572C381.65 403.172 381.6 403.692 382.07 404.102C383.25 405.342 386.09 406.432 386.09 406.432C385.23 406.322 384.4 406.162 383.58 405.892C382.77 405.632 381.93 405.282 381.29 404.612C380.98 404.292 380.74 403.842 380.75 403.412C380.72 402.962 380.9 402.622 381.05 402.272C381.4 401.602 381.87 401.042 382.33 400.492C383.26 399.392 384.2 398.332 384.91 397.142C385.62 395.962 386.19 394.692 386.44 393.352H386.43Z" fill="#EA877B"/>
<path d="M396.69 393.772C396.53 395.102 395.72 396.102 394.89 395.992C394.06 395.892 393.52 394.722 393.68 393.392C393.84 392.062 394.65 391.062 395.48 391.172C396.31 391.272 396.85 392.442 396.69 393.772Z" fill="black"/>
<path d="M381.1 393.282C381.04 394.622 380.31 395.682 379.47 395.642C378.63 395.602 378 394.492 378.06 393.152C378.12 391.812 378.85 390.752 379.69 390.792C380.53 390.832 381.16 391.942 381.1 393.282Z" fill="black"/>
<path d="M381.06 410.302L391.54 410.352C391.54 410.352 389.32 412.802 385.28 412.562C381.93 412.362 381.06 410.292 381.06 410.292V410.302Z" fill="#EA877B"/>
<path d="M428.5 551.542C428.5 551.542 440.12 574.902 439.43 586.342C438.74 597.782 424.46 674.102 424.46 674.102C424.46 674.102 425.32 686.492 427.19 708.412C428.81 727.452 427.61 782.372 427.61 782.372L402.23 784.612L387.36 679.482L383.38 607.522L370.63 551.532H428.5V551.542Z" fill="#333333"/>
<path d="M361.86 554.062C361.86 554.062 360.15 571.142 360.28 585.012C360.41 598.882 363.13 688.762 363.13 688.762L390.37 784.182L414.02 779.982L395.36 548.752L361.86 554.062Z" fill="#333333"/>
<path d="M427.61 782.383C427.61 782.383 427.47 782.423 427.18 782.453C426.85 782.493 426.43 782.533 425.91 782.593C424.73 782.703 423.08 782.863 420.97 783.063C416.6 783.443 410.32 783.993 402.43 784.683L402.16 784.703L402.12 784.433C399.43 765.203 395.34 735.873 390.76 703.063C390.01 697.873 389.29 692.763 388.49 687.783C388.09 685.343 387.56 682.843 387.26 680.393C386.94 677.953 386.63 675.533 386.33 673.163C385.16 663.653 384.14 654.683 383.23 646.483C381.4 630.083 380 616.753 379.13 608.143V608.183C377.99 604.553 377.1 601.753 376.48 599.793C376.2 598.883 375.99 598.163 375.82 597.633C375.68 597.143 375.61 596.893 375.63 596.893C375.65 596.893 375.74 597.123 375.92 597.603C376.11 598.133 376.36 598.833 376.67 599.733C377.33 601.673 378.28 604.463 379.51 608.063V608.083V608.103C380.52 616.773 382.06 630.063 383.96 646.403C384.94 654.593 386.02 663.553 387.16 673.063C387.47 675.433 387.79 677.843 388.11 680.283C388.42 682.723 388.92 685.113 389.35 687.643C390.16 692.633 390.88 697.743 391.63 702.933C396.29 735.773 400.18 765.173 402.68 784.353L402.38 784.103C410.28 783.523 416.56 783.063 420.94 782.743C423.06 782.603 424.71 782.503 425.89 782.423C426.42 782.393 426.84 782.373 427.17 782.363C427.46 782.363 427.6 782.363 427.6 782.363L427.61 782.383Z" fill="#2A2A2A"/>
<path d="M379.18 440.632C379.18 441.832 361.32 464.102 360.27 470.892C358.56 481.912 363.29 491.263 363.55 511.293C363.7 522.673 360.19 534.882 358.11 547.612C357.35 552.272 361.72 555.502 361.72 555.502C361.72 555.502 419.25 551.882 425.57 552.432C431.88 552.982 436.57 550.163 435.59 542.853C434.52 534.843 429.67 527.272 431.01 518.212C432.35 509.152 436.69 470.592 437.21 457.132C437.66 445.472 418.19 424.432 418.19 424.432L415.12 417.812L382.04 433.172L379.18 440.632Z" fill="#CAEDFD"/>
<path d="M394.6 577.913C394.43 578.193 389.3 591.903 388.52 594.543C387.73 597.173 388.75 605.823 390.63 607.373C392.5 608.933 393.46 610.073 394.17 609.913C394.89 609.753 397.66 606.483 397.66 606.483C397.66 606.483 401.37 609.083 403.36 604.393C403.36 604.393 406.88 605.393 407.47 601.053C407.47 601.053 410.77 599.853 410.08 597.253L409.3 595.603C409.3 595.603 409.97 587.383 409.67 584.283C409.37 581.173 408.18 578.953 408.18 578.953L394.59 577.913H394.6Z" fill="#FFBE95"/>
<path d="M392.8 600.603C392.67 600.693 393.49 602.253 394.74 604.013C395.98 605.773 397.17 607.063 397.29 606.963C397.41 606.863 396.43 605.423 395.2 603.673C393.96 601.923 392.94 600.522 392.8 600.612V600.603Z" fill="#EA877B"/>
<path d="M399.06 599.573C398.93 599.663 399.68 601.003 400.93 602.403C402.18 603.803 403.42 604.673 403.52 604.553C403.62 604.423 402.57 603.373 401.35 602.003C400.13 600.643 399.19 599.483 399.06 599.573Z" fill="#EA877B"/>
<path d="M394 599.332C393.87 599.432 394.43 600.162 395.46 600.242C396.49 600.332 397.17 599.702 397.06 599.592C396.97 599.452 396.33 599.742 395.51 599.662C394.69 599.602 394.11 599.212 394 599.332Z" fill="#EA877B"/>
<path d="M388.79 599.613C388.71 599.743 389.36 600.283 390.36 600.363C391.36 600.453 392.1 600.033 392.04 599.883C391.99 599.723 391.27 599.853 390.42 599.773C389.56 599.713 388.88 599.463 388.8 599.613H388.79Z" fill="#EA877B"/>
<path d="M400.41 598.693C400.3 598.813 400.91 599.383 401.82 599.223C402.74 599.073 403.15 598.333 403.01 598.253C402.89 598.153 402.42 598.543 401.73 598.643C401.05 598.773 400.49 598.553 400.4 598.693H400.41Z" fill="#EA877B"/>
<path d="M395.85 462.592L396.59 523.732L392.65 577.902L411.67 579.732C411.67 579.732 422.98 538.062 425.58 528.562C428.1 519.332 431.88 472.892 432.22 470.612C432.35 469.722 435.01 453.682 427.18 446.112" fill="#CAEDFD"/>
<path d="M408.84 529.762C408.84 529.762 408.1 529.602 406.94 529.212C405.79 528.822 404.21 528.222 402.51 527.462C400.81 526.702 399.31 525.942 398.24 525.352C397.17 524.762 396.54 524.352 396.56 524.312C396.58 524.272 397.26 524.602 398.35 525.142C399.44 525.682 400.95 526.402 402.65 527.162C404.34 527.912 405.9 528.542 407.03 528.992C408.16 529.442 408.86 529.722 408.84 529.762Z" fill="#06B4FF"/>
<path d="M424.41 442.503C424.38 442.563 423.57 442.043 422.13 441.493C421.42 441.213 420.54 440.963 419.55 440.753C418.56 440.573 417.45 440.453 416.28 440.463C415.11 440.483 414.01 440.633 413.02 440.843C412.04 441.073 411.16 441.353 410.46 441.653C409.04 442.243 408.25 442.783 408.21 442.723C408.2 442.703 408.39 442.563 408.75 442.313C408.93 442.183 409.15 442.043 409.43 441.903C409.7 441.763 410.01 441.573 410.37 441.433C411.07 441.103 411.96 440.793 412.96 440.543C413.97 440.313 415.09 440.153 416.29 440.123C417.48 440.123 418.62 440.243 419.63 440.453C420.64 440.673 421.53 440.963 422.24 441.273C422.61 441.413 422.91 441.583 423.19 441.723C423.47 441.853 423.7 441.993 423.88 442.113C424.25 442.343 424.44 442.483 424.43 442.503H424.41Z" fill="#06B4FF"/>
<path d="M416.04 424.983C406.31 431.543 395.9 437.983 385.84 444.073L385.47 444.293C384.32 441.143 383.1 438.013 381.99 434.843L382.21 434.883L379.91 439.973L382.02 434.713C382.19 434.493 382.13 434.533 382.24 434.753C383.54 437.693 384.73 440.683 385.99 443.643L385.48 443.473C395.43 437.183 405.83 430.753 416.05 424.973L416.04 424.983Z" fill="#06B4FF"/>
<path d="M363.44 507.382C362.97 530.422 360.83 532.742 359.01 542.862C363.58 517.432 363.44 507.382 363.44 507.382Z" fill="#06B4FF"/>
<path d="M392.65 577.912C393.61 562.492 395.24 539.882 396.32 524.312C395.97 502.732 395.68 479.122 395.52 457.472C396.03 479.152 396.46 502.712 396.79 524.322C395.59 540.062 393.95 562.392 392.65 577.922V577.912Z" fill="#06B4FF"/>
<path d="M419.08 552.463C420.16 548.293 425.1 530.072 425.91 526.302C427.39 514.052 428.65 500.912 430.14 488.682L432.62 467.193C432.62 462.993 432.6 458.613 432.1 454.383C431.87 453.003 431.79 451.472 430.95 450.312C431.81 451.462 431.92 453.002 432.18 454.372C432.76 458.632 432.89 462.933 432.89 467.223L430.55 488.742C429.2 500.992 427.8 514.122 426.24 526.372C424.11 535.142 421.55 543.793 419.08 552.463Z" fill="#06B4FF"/>
<path d="M319.14 521.782C319.72 527.892 319.73 534.012 319.14 540.132C318.55 534.022 318.56 527.902 319.14 521.782Z" fill="#06B4FF"/>
<path d="M393.55 570.762C400.14 570.872 406.67 571.552 413.13 572.822C406.54 572.722 400.01 572.022 393.55 570.762Z" fill="#06B4FF"/>
<path d="M85.2 183.802C83.76 183.802 82.6 184.962 82.6 186.402V228.032H95.61V183.802H85.2ZM93.01 220.232H87.81V215.032H93.01V220.232ZM93.01 209.822H87.81V204.622H93.01V209.822ZM93.01 199.412H87.81V194.212H93.01V199.412ZM147.65 183.802H137.24V228.032H150.25V186.402C150.25 184.962 149.09 183.802 147.65 183.802ZM145.05 220.232H139.85V215.032H145.05V220.232ZM145.05 209.822H139.85V204.622H145.05V209.822ZM145.05 199.412H139.85V194.212H145.05V199.412ZM132.04 162.982H100.82C99.38 162.982 98.22 164.142 98.22 165.582V228.032H134.65V165.582C134.65 164.142 133.49 162.982 132.05 162.982H132.04ZM113.83 220.222H108.63V215.022H113.83V220.222ZM113.83 209.812H108.63V204.612H113.83V209.812ZM113.83 199.402H108.63V194.202H113.83V199.402ZM113.83 188.992H108.63V183.792H113.83V188.992ZM113.83 178.582H108.63V173.382H113.83V178.582ZM124.24 220.212H119.04V215.012H124.24V220.212ZM124.24 209.802H119.04V204.602H124.24V209.802ZM124.24 199.392H119.04V194.192H124.24V199.392ZM124.24 188.982H119.04V183.782H124.24V188.982ZM124.24 178.572H119.04V173.372H124.24V178.572ZM152.86 235.812H80.01V230.612H152.86V235.812Z" fill="#0092FF"/>
<path d="M72.7001 546.992L77.4401 545.032L82.1801 546.992C82.8101 547.252 83.5401 547.172 84.1001 546.762C84.6601 546.352 84.9601 545.692 84.9101 545.002L84.5101 539.892L87.8401 535.992C88.2901 535.472 88.4301 534.752 88.2201 534.092C88.0101 533.432 87.4701 532.932 86.8001 532.782L81.8101 531.582L79.1301 527.212C78.4201 525.962 76.4601 525.962 75.7501 527.212L73.0701 531.582L68.0801 532.782C67.4101 532.942 66.8701 533.442 66.6601 534.092C66.4501 534.752 66.5901 535.472 67.0401 535.992L70.3701 539.892L69.9701 545.002C69.9201 545.692 70.2201 546.352 70.7801 546.762C71.3401 547.162 72.0701 547.252 72.7001 546.992Z" fill="#0092FF"/>
<path d="M111.16 541.882C110.95 541.222 110.41 540.722 109.74 540.572L104.75 539.372L102.07 535.002C101.71 534.412 101.07 534.052 100.38 534.052C99.69 534.052 99.05 534.412 98.69 535.002L96.01 539.372L91.02 540.572C90.35 540.732 89.81 541.232 89.6 541.882C89.39 542.542 89.53 543.262 89.98 543.782L93.31 547.682L92.91 552.792C92.86 553.482 93.16 554.142 93.72 554.552C94.28 554.952 95.01 555.042 95.64 554.782L100.38 552.822L105.12 554.782C105.75 555.042 106.48 554.962 107.04 554.552C107.6 554.142 107.9 553.482 107.85 552.792L107.45 547.682L110.78 543.782C111.23 543.262 111.37 542.542 111.16 541.882Z" fill="#0092FF"/>
<path d="M59.9801 554.932C60.3901 554.932 60.8001 554.802 61.1501 554.552C61.7101 554.142 62.0101 553.482 61.9601 552.792L61.5601 547.682L64.8901 543.782C65.3401 543.262 65.4801 542.542 65.2701 541.882C65.0601 541.222 64.5201 540.722 63.8501 540.572L58.8601 539.372L56.1801 535.002C55.8201 534.412 55.1801 534.052 54.4901 534.052C53.8001 534.052 53.1601 534.412 52.8001 535.002L50.1201 539.372L45.1301 540.572C44.4601 540.732 43.9201 541.232 43.7101 541.882C43.5001 542.542 43.6401 543.262 44.0901 543.782L47.4201 547.682L47.0201 552.792C46.9701 553.482 47.2701 554.142 47.8301 554.552C48.3901 554.952 49.1201 555.042 49.7501 554.782L54.4901 552.822L59.2301 554.782C59.4701 554.882 59.7301 554.932 59.9901 554.932H59.9801Z" fill="#0092FF"/>
<path d="M100.76 573.942L98.41 587.382C97.82 590.752 94.9 593.202 91.48 593.202H77.95C77.01 593.202 76.08 593.012 75.22 592.662C74.36 592.302 73.57 591.782 72.91 591.112C72.87 591.072 72.83 591.032 72.78 590.992V568.662L72.87 568.632C74.78 567.952 76.26 566.422 76.89 564.492L78.07 560.712L79.66 555.612C80.13 554.182 81.67 553.402 83.1 553.862C85.73 554.722 87.4 557.162 87.4 559.782C87.4 560.422 87.3 561.072 87.09 561.722L85.31 567.552H95.36C98.75 567.552 101.32 570.612 100.73 573.942H100.76Z" fill="#06B4FF"/>
<path d="M66.8702 593.922H57.7002C56.6102 593.922 55.7302 593.042 55.7302 591.952V568.192C55.7302 567.102 56.6102 566.222 57.7002 566.222H66.8702C67.9602 566.222 68.8402 567.102 68.8402 568.192V591.952C68.8402 593.042 67.9602 593.922 66.8702 593.922Z" fill="#0092FF"/>
<path d="M410.03 408.402C413.95 410.692 418.13 403.552 418.13 403.552L422.4 389.612" fill="black"/>
<path d="M568.67 369.653C575.673 369.653 581.35 363.976 581.35 356.973C581.35 349.97 575.673 344.293 568.67 344.293C561.667 344.293 555.99 349.97 555.99 356.973C555.99 363.976 561.667 369.653 568.67 369.653Z" fill="#06B4FF"/>
<path d="M568.67 374.533C581.86 374.533 592.57 385.243 592.57 398.433V404.103H544.78V398.433C544.78 385.243 555.49 374.533 568.68 374.533H568.67Z" fill="#06B4FF"/>
</svg>
